<svg xmlns="http://www.w3.org/2000/svg" xmlns:v="https://svgstorm.com"
viewBox = "0 0 512 512"
>
<g fill="None" fill-opacity="0.0" stroke="#000000" stroke-opacity="0.01" stroke-width="0.3"><path d="
M 0.00 340.00 
C 0.68 325.52 6.93 315.21 16.75 305.75 C 26.57 296.29 34.16 293.81 47.23 292.79 C 60.30 291.77 77.15 294.49 74.87 307.92 C 72.59 321.34 52.75 309.94 42.30 313.64 C 31.86 317.35 21.86 325.19 20.20 337.25 C 18.54 349.30 23.89 361.16 33.77 368.24 C 43.65 375.31 57.35 370.94 70.00 369.00
C 82.10 381.65 68.70 392.98 54.75 392.19 C 40.79 391.40 28.53 390.89 18.75 381.81 C 8.96 372.73 1.72 361.27 0.00 348.00
L 0.00 512.00
L 111.00 512.00
C 98.62 507.38 102.80 493.26 102.00 480.00 C 101.20 466.74 103.25 448.49 102.00 435.00 C 100.75 421.51 105.16 410.49 119.00 413.00 C 132.84 415.51 147.02 408.07 155.00 418.00
C 158.57 434.29 141.26 433.07 128.00 432.00 C 114.74 430.93 125.71 445.48 122.00 452.00
C 128.89 450.43 142.08 450.14 146.75 452.39 C 151.43 454.64 155.45 461.59 150.87 466.92 C 146.29 472.25 140.47 472.44 130.00 471.00 C 119.53 469.56 121.32 485.25 122.00 494.00 C 122.68 502.75 122.87 508.13 117.00 512.00
L 190.00 512.00
C 178.19 504.81 184.09 485.79 183.00 470.00 C 181.91 454.21 183.93 432.84 183.00 418.00
C 189.73 409.80 210.60 412.80 220.25 412.80 C 229.90 412.80 237.26 421.84 242.58 428.77 C 247.89 435.70 246.74 447.04 243.88 454.90 C 241.03 462.76 231.35 471.30 223.00 473.00
C 233.25 484.04 256.65 499.48 240.00 512.00
L 282.00 512.00
C 269.04 507.04 277.40 491.03 275.00 477.00 C 272.60 462.97 278.30 443.40 275.00 429.00 C 271.70 414.60 283.64 409.92 297.00 412.00 C 310.36 414.08 326.09 406.87 327.80 421.25 C 329.51 435.63 304.52 432.68 294.00 432.00
C 295.64 438.45 295.64 446.58 294.00 453.00
C 305.32 453.43 326.66 448.77 325.97 463.03 C 325.29 477.28 306.09 470.37 294.00 472.00
C 294.00 478.67 294.00 485.33 294.00 492.00
C 304.07 492.62 318.04 490.06 324.30 494.71 C 330.57 499.36 326.91 508.56 322.00 512.00
L 363.00 512.00
C 351.62 506.37 357.23 493.58 356.00 480.00 C 354.77 466.42 357.62 447.61 356.00 434.00 C 354.38 420.39 357.83 410.80 372.00 413.00 C 386.17 415.20 400.97 408.24 409.00 418.00
C 412.38 435.24 394.91 432.68 381.00 432.00 C 367.09 431.32 379.18 446.09 375.00 453.00
C 386.67 453.40 404.66 446.70 406.39 460.75 C 408.13 474.81 387.85 472.96 375.00 472.00
C 375.00 478.67 375.00 485.33 375.00 492.00
C 384.45 493.53 398.18 489.02 405.75 494.25 C 413.31 499.49 406.83 509.15 403.00 512.00
L 512.00 512.00
L 512.00 0.00
L 349.00 0.00
C 360.33 2.22 371.45 11.51 370.22 24.22 C 368.99 36.94 347.59 32.84 349.00 20.00
C 333.21 22.68 317.40 41.86 309.25 55.25 C 301.10 68.65 296.59 80.74 291.00 98.00
C 299.42 99.78 306.87 106.18 315.00 116.00
C 322.36 109.81 334.83 88.89 344.23 101.77 C 353.64 114.65 331.93 123.22 329.00 134.00
C 340.95 152.27 344.51 171.46 349.60 196.74 C 354.68 222.02 342.43 247.33 323.70 261.71 C 304.96 276.09 274.92 275.15 256.00 263.00
C 237.36 274.22 209.19 276.72 189.75 262.81 C 170.30 248.90 157.07 222.27 162.20 196.75 C 167.33 171.23 171.45 152.15 183.00 134.00
C 166.70 114.79 155.19 91.58 147.81 69.75 C 140.42 47.92 131.14 6.74 163.00 0.00
L 0.00 0.00
L 0.00 340.00
M 352.00 57.00 
C 364.33 54.74 370.18 71.89 357.25 76.40 C 344.33 80.91 341.12 59.00 352.00 57.00
M 135.00 354.00 
C 143.89 364.25 150.59 366.66 156.19 378.25 C 161.79 389.85 144.13 397.90 137.81 385.75 C 131.48 373.61 120.78 370.27 114.00 360.00
C 111.68 372.56 120.04 392.53 105.25 392.39 C 90.46 392.26 96.17 373.29 95.00 358.00 C 93.83 342.71 97.24 320.04 95.00 304.00 C 92.76 287.96 114.26 294.08 126.00 293.00 C 137.74 291.92 144.24 297.32 151.57 304.77 C 158.90 312.22 158.36 322.29 155.88 332.90 C 153.41 343.51 141.67 349.41 135.00 354.00
M 251.00 298.00 
C 250.48 310.85 251.48 327.98 251.00 342.00 C 250.52 356.02 252.09 365.66 246.81 374.25 C 241.53 382.85 232.01 387.82 224.90 390.91 C 217.79 393.99 205.88 391.89 198.70 389.29 C 191.52 386.69 183.98 381.35 179.74 373.25 C 175.49 365.14 174.14 352.31 176.00 339.00 C 177.86 325.69 172.18 306.17 177.13 297.08 C 182.07 287.99 197.27 293.02 195.01 305.01 C 192.74 317.00 196.34 342.31 195.00 354.00 C 193.66 365.69 203.71 373.56 214.01 372.99 C 224.31 372.43 231.62 364.30 230.00 352.00 C 228.38 339.70 230.56 316.62 230.00 304.00 C 229.44 291.38 244.93 289.46 251.00 298.00
M 358.00 373.00 
C 369.14 369.72 382.08 374.95 378.67 385.67 C 375.26 396.39 357.03 392.43 346.25 391.74 C 335.47 391.04 339.88 374.09 339.00 362.00 C 338.12 349.91 340.48 327.31 339.00 315.00 C 337.52 302.69 339.75 289.23 351.92 293.13 C 364.08 297.03 356.27 312.73 358.00 326.00 C 359.73 339.27 356.70 359.13 358.00 373.00
M 418.00 312.00 
C 419.45 331.60 416.06 360.31 418.00 379.00 C 419.94 397.69 396.57 396.80 398.00 378.00 C 399.43 359.20 396.10 331.13 399.00 312.00
C 389.58 314.69 379.48 308.46 382.40 299.25 C 385.31 290.03 397.67 293.02 408.00 293.00 C 418.33 292.98 431.57 290.05 433.39 299.75 C 435.21 309.46 428.82 313.96 418.00 312.00
M 479.00 321.00 
C 483.10 316.03 488.40 308.63 490.39 302.25 C 492.39 295.87 506.59 286.35 510.75 298.25 C 514.91 310.15 504.56 314.47 502.81 322.25 C 501.06 330.04 493.43 332.83 491.29 341.30 C 489.14 349.77 490.01 372.55 489.22 383.22 C 488.44 393.89 477.52 394.79 470.00 387.00
C 468.08 374.55 474.20 346.12 466.61 337.25 C 459.02 328.37 460.42 320.21 452.61 312.25 C 444.80 304.28 451.20 286.32 462.75 293.39 C 474.30 300.47 472.21 312.69 479.00 321.00
M 293.00 313.00 
C 293.00 319.67 293.00 326.33 293.00 333.00
C 303.94 334.52 318.41 328.60 319.76 341.25 C 321.10 353.89 304.37 353.38 293.00 352.00
C 294.64 358.44 294.64 366.58 293.00 373.00
C 303.60 371.53 324.52 371.15 321.78 384.22 C 319.05 397.29 304.21 391.17 290.00 393.00 C 275.79 394.83 272.02 384.44 273.00 370.00 C 273.98 355.56 273.32 334.98 273.00 321.00 C 272.68 307.02 272.14 292.35 286.01 293.99 C 299.88 295.64 317.98 288.36 321.76 301.25 C 325.53 314.14 302.06 316.20 293.00 313.00 Z"/>
</g>
<g fill="None" fill-opacity="0.0" stroke="#000000" stroke-opacity="0.98" stroke-width="0.3"><path d="
M 349.00 0.00 
L 345.00 0.00
C 324.18 2.39 306.60 24.88 295.81 41.25 C 285.02 57.62 277.85 70.81 272.00 91.00
C 262.25 88.81 249.69 88.60 240.00 91.00
C 234.31 70.43 226.85 58.35 216.30 41.70 C 205.75 25.05 188.43 3.86 169.00 0.00
L 163.00 0.00
C 131.14 6.74 140.42 47.92 147.81 69.75 C 155.19 91.58 166.70 114.79 183.00 134.00
C 171.45 152.15 167.33 171.23 162.20 196.75 C 157.07 222.27 170.30 248.90 189.75 262.81 C 209.19 276.72 237.36 274.22 256.00 263.00
C 274.92 275.15 304.96 276.09 323.70 261.71 C 342.43 247.33 354.68 222.02 349.60 196.74 C 344.51 171.46 340.95 152.27 329.00 134.00
C 331.93 123.22 353.64 114.65 344.23 101.77 C 334.83 88.89 322.36 109.81 315.00 116.00
C 306.87 106.18 299.42 99.78 291.00 98.00
C 296.59 80.74 301.10 68.65 309.25 55.25 C 317.40 41.86 333.21 22.68 349.00 20.00
C 347.59 32.84 368.99 36.94 370.22 24.22 C 371.45 11.51 360.33 2.22 349.00 0.00
M 221.00 98.00 
C 212.58 99.78 205.13 106.18 197.00 116.00
C 182.82 103.15 176.18 89.04 169.87 74.08 C 163.57 59.12 158.14 38.96 162.00 21.00
C 178.52 20.50 193.98 41.65 202.24 54.77 C 210.49 67.89 215.63 80.93 221.00 98.00
M 266.00 247.00 
C 262.13 233.88 283.42 229.35 279.69 218.30 C 275.96 207.26 262.38 210.46 257.00 221.00
C 248.46 213.31 240.72 206.58 232.00 216.00
C 233.82 218.17 231.71 220.75 231.00 223.00
C 234.42 229.30 249.25 235.90 246.00 247.00
C 227.81 258.38 199.77 250.99 187.92 233.08 C 176.07 215.17 184.50 187.45 189.13 169.08 C 193.76 150.72 206.23 128.69 224.77 117.43 C 243.31 106.17 267.86 106.52 286.77 117.58 C 305.68 128.63 317.67 149.78 322.35 168.70 C 327.03 187.61 336.15 212.80 324.42 231.77 C 312.70 250.74 284.81 258.78 266.00 247.00 Z"/>
</g>
<g fill="None" fill-opacity="0.0" stroke="#000000" stroke-opacity="0.01" stroke-width="0.3"><path d="
M 345.00 0.00 
L 169.00 0.00
C 188.43 3.86 205.75 25.05 216.30 41.70 C 226.85 58.35 234.31 70.43 240.00 91.00
C 249.69 88.60 262.25 88.81 272.00 91.00
C 277.85 70.81 285.02 57.62 295.81 41.25 C 306.60 24.88 324.18 2.39 345.00 0.00 Z"/>
</g>
<g fill="None" fill-opacity="0.0" stroke="#000000" stroke-opacity="0.02" stroke-width="0.3"><path d="
M 221.00 98.00 
C 215.63 80.93 210.49 67.89 202.24 54.77 C 193.98 41.65 178.52 20.50 162.00 21.00
C 158.14 38.96 163.57 59.12 169.87 74.08 C 176.18 89.04 182.82 103.15 197.00 116.00
C 205.13 106.18 212.58 99.78 221.00 98.00 Z"/>
</g>
<g fill="None" fill-opacity="0.0" stroke="#000000" stroke-opacity="0.95" stroke-width="0.3"><path d="
M 352.00 57.00 
C 341.12 59.00 344.33 80.91 357.25 76.40 C 370.18 71.89 364.33 54.74 352.00 57.00 Z"/>
</g>
<g fill="None" fill-opacity="0.0" stroke="#000000" stroke-opacity="0.02" stroke-width="0.3"><path d="
M 266.00 247.00 
C 284.81 258.78 312.70 250.74 324.42 231.77 C 336.15 212.80 327.03 187.61 322.35 168.70 C 317.67 149.78 305.68 128.63 286.77 117.58 C 267.86 106.52 243.31 106.17 224.77 117.43 C 206.23 128.69 193.76 150.72 189.13 169.08 C 184.50 187.45 176.07 215.17 187.92 233.08 C 199.77 250.99 227.81 258.38 246.00 247.00
C 249.25 235.90 234.42 229.30 231.00 223.00
C 231.71 220.75 233.82 218.17 232.00 216.00
C 240.72 206.58 248.46 213.31 257.00 221.00
C 262.38 210.46 275.96 207.26 279.69 218.30 C 283.42 229.35 262.13 233.88 266.00 247.00
M 239.00 189.00 
C 225.88 190.85 219.35 176.78 230.00 169.00
C 243.23 166.46 249.72 180.01 239.00 189.00
M 281.00 169.00 
C 291.91 176.89 283.14 192.84 272.08 187.87 C 261.02 182.90 267.43 165.25 281.00 169.00 Z"/>
</g>
<g fill="None" fill-opacity="0.0" stroke="#000000" stroke-opacity="0.95" stroke-width="0.3"><path d="
M 239.00 189.00 
C 249.72 180.01 243.23 166.46 230.00 169.00
C 219.35 176.78 225.88 190.85 239.00 189.00 Z"/>
</g>
<g fill="None" fill-opacity="0.0" stroke="#000000" stroke-opacity="0.95" stroke-width="0.3"><path d="
M 281.00 169.00 
C 267.43 165.25 261.02 182.90 272.08 187.87 C 283.14 192.84 291.91 176.89 281.00 169.00 Z"/>
</g>
<g fill="None" fill-opacity="0.0" stroke="#000000" stroke-opacity="0.97" stroke-width="0.3"><path d="
M 0.00 340.00 
L 0.00 348.00
C 1.72 361.27 8.96 372.73 18.75 381.81 C 28.53 390.89 40.79 391.40 54.75 392.19 C 68.70 392.98 82.10 381.65 70.00 369.00
C 57.35 370.94 43.65 375.31 33.77 368.24 C 23.89 361.16 18.54 349.30 20.20 337.25 C 21.86 325.19 31.86 317.35 42.30 313.64 C 52.75 309.94 72.59 321.34 74.87 307.92 C 77.15 294.49 60.30 291.77 47.23 292.79 C 34.16 293.81 26.57 296.29 16.75 305.75 C 6.93 315.21 0.68 325.52 0.00 340.00 Z"/>
</g>
<g fill="None" fill-opacity="0.0" stroke="#000000" stroke-opacity="0.98" stroke-width="0.3"><path d="
M 135.00 354.00 
C 141.67 349.41 153.41 343.51 155.88 332.90 C 158.36 322.29 158.90 312.22 151.57 304.77 C 144.24 297.32 137.74 291.92 126.00 293.00 C 114.26 294.08 92.76 287.96 95.00 304.00 C 97.24 320.04 93.83 342.71 95.00 358.00 C 96.17 373.29 90.46 392.26 105.25 392.39 C 120.04 392.53 111.68 372.56 114.00 360.00
C 120.78 370.27 131.48 373.61 137.81 385.75 C 144.13 397.90 161.79 389.85 156.19 378.25 C 150.59 366.66 143.89 364.25 135.00 354.00
M 114.00 334.00 
C 114.00 326.67 114.00 319.33 114.00 312.00
C 123.73 311.45 137.70 312.24 137.93 323.08 C 138.17 333.93 123.90 335.07 114.00 334.00 Z"/>
</g>
<g fill="None" fill-opacity="0.0" stroke="#000000" stroke-opacity="0.97" stroke-width="0.3"><path d="
M 251.00 298.00 
C 244.93 289.46 229.44 291.38 230.00 304.00 C 230.56 316.62 228.38 339.70 230.00 352.00 C 231.62 364.30 224.31 372.43 214.01 372.99 C 203.71 373.56 193.66 365.69 195.00 354.00 C 196.34 342.31 192.74 317.00 195.01 305.01 C 197.27 293.02 182.07 287.99 177.13 297.08 C 172.18 306.17 177.86 325.69 176.00 339.00 C 174.14 352.31 175.49 365.14 179.74 373.25 C 183.98 381.35 191.52 386.69 198.70 389.29 C 205.88 391.89 217.79 393.99 224.90 390.91 C 232.01 387.82 241.53 382.85 246.81 374.25 C 252.09 365.66 250.52 356.02 251.00 342.00 C 251.48 327.98 250.48 310.85 251.00 298.00 Z"/>
</g>
<g fill="None" fill-opacity="0.0" stroke="#000000" stroke-opacity="0.99" stroke-width="0.3"><path d="
M 358.00 373.00 
C 356.70 359.13 359.73 339.27 358.00 326.00 C 356.27 312.73 364.08 297.03 351.92 293.13 C 339.75 289.23 337.52 302.69 339.00 315.00 C 340.48 327.31 338.12 349.91 339.00 362.00 C 339.88 374.09 335.47 391.04 346.25 391.74 C 357.03 392.43 375.26 396.39 378.67 385.67 C 382.08 374.95 369.14 369.72 358.00 373.00 Z"/>
</g>
<g fill="None" fill-opacity="0.0" stroke="#000000" stroke-opacity="0.98" stroke-width="0.3"><path d="
M 418.00 312.00 
C 428.82 313.96 435.21 309.46 433.39 299.75 C 431.57 290.05 418.33 292.98 408.00 293.00 C 397.67 293.02 385.31 290.03 382.40 299.25 C 379.48 308.46 389.58 314.69 399.00 312.00
C 396.10 331.13 399.43 359.20 398.00 378.00 C 396.57 396.80 419.94 397.69 418.00 379.00 C 416.06 360.31 419.45 331.60 418.00 312.00 Z"/>
</g>
<g fill="None" fill-opacity="0.0" stroke="#000000" stroke-opacity="0.98" stroke-width="0.3"><path d="
M 479.00 321.00 
C 472.21 312.69 474.30 300.47 462.75 293.39 C 451.20 286.32 444.80 304.28 452.61 312.25 C 460.42 320.21 459.02 328.37 466.61 337.25 C 474.20 346.12 468.08 374.55 470.00 387.00
C 477.52 394.79 488.44 393.89 489.22 383.22 C 490.01 372.55 489.14 349.77 491.29 341.30 C 493.43 332.83 501.06 330.04 502.81 322.25 C 504.56 314.47 514.91 310.15 510.75 298.25 C 506.59 286.35 492.39 295.87 490.39 302.25 C 488.40 308.63 483.10 316.03 479.00 321.00 Z"/>
</g>
<g fill="None" fill-opacity="0.0" stroke="#000000" stroke-opacity="0.97" stroke-width="0.3"><path d="
M 293.00 313.00 
C 302.06 316.20 325.53 314.14 321.76 301.25 C 317.98 288.36 299.88 295.64 286.01 293.99 C 272.14 292.35 272.68 307.02 273.00 321.00 C 273.32 334.98 273.98 355.56 273.00 370.00 C 272.02 384.44 275.79 394.83 290.00 393.00 C 304.21 391.17 319.05 397.29 321.78 384.22 C 324.52 371.15 303.60 371.53 293.00 373.00
C 294.64 366.58 294.64 358.44 293.00 352.00
C 304.37 353.38 321.10 353.89 319.76 341.25 C 318.41 328.60 303.94 334.52 293.00 333.00
C 293.00 326.33 293.00 319.67 293.00 313.00 Z"/>
</g>
<g fill="None" fill-opacity="0.0" stroke="#000000" stroke-opacity="0.05" stroke-width="0.3"><path d="
M 114.00 334.00 
C 123.90 335.07 138.17 333.93 137.93 323.08 C 137.70 312.24 123.73 311.45 114.00 312.00
C 114.00 319.33 114.00 326.67 114.00 334.00 Z"/>
</g>
<g fill="None" fill-opacity="0.0" stroke="#000000" stroke-opacity="0.96" stroke-width="0.3"><path d="
M 111.00 512.00 
L 117.00 512.00
C 122.87 508.13 122.68 502.75 122.00 494.00 C 121.32 485.25 119.53 469.56 130.00 471.00 C 140.47 472.44 146.29 472.25 150.87 466.92 C 155.45 461.59 151.43 454.64 146.75 452.39 C 142.08 450.14 128.89 450.43 122.00 452.00
C 125.71 445.48 114.74 430.93 128.00 432.00 C 141.26 433.07 158.57 434.29 155.00 418.00
C 147.02 408.07 132.84 415.51 119.00 413.00 C 105.16 410.49 100.75 421.51 102.00 435.00 C 103.25 448.49 101.20 466.74 102.00 480.00 C 102.80 493.26 98.62 507.38 111.00 512.00 Z"/>
</g>
<g fill="None" fill-opacity="0.0" stroke="#000000" stroke-opacity="0.98" stroke-width="0.3"><path d="
M 190.00 512.00 
L 197.00 512.00
C 206.43 507.21 201.08 490.83 204.00 480.00
C 213.79 491.65 221.85 501.03 233.00 512.00
L 240.00 512.00
C 256.65 499.48 233.25 484.04 223.00 473.00
C 231.35 471.30 241.03 462.76 243.88 454.90 C 246.74 447.04 247.89 435.70 242.58 428.77 C 237.26 421.84 229.90 412.80 220.25 412.80 C 210.60 412.80 189.73 409.80 183.00 418.00
C 183.93 432.84 181.91 454.21 183.00 470.00 C 184.09 485.79 178.19 504.81 190.00 512.00
M 203.00 454.00 
C 203.00 446.67 203.00 439.33 203.00 432.00
C 213.76 431.14 226.27 432.50 226.06 443.08 C 225.86 453.66 213.45 455.10 203.00 454.00 Z"/>
</g>
<g fill="None" fill-opacity="0.0" stroke="#000000" stroke-opacity="0.98" stroke-width="0.3"><path d="
M 282.00 512.00 
L 322.00 512.00
C 326.91 508.56 330.57 499.36 324.30 494.71 C 318.04 490.06 304.07 492.62 294.00 492.00
C 294.00 485.33 294.00 478.67 294.00 472.00
C 306.09 470.37 325.29 477.28 325.97 463.03 C 326.66 448.77 305.32 453.43 294.00 453.00
C 295.64 446.58 295.64 438.45 294.00 432.00
C 304.52 432.68 329.51 435.63 327.80 421.25 C 326.09 406.87 310.36 414.08 297.00 412.00 C 283.64 409.92 271.70 414.60 275.00 429.00 C 278.30 443.40 272.60 462.97 275.00 477.00 C 277.40 491.03 269.04 507.04 282.00 512.00 Z"/>
</g>
<g fill="None" fill-opacity="0.0" stroke="#000000" stroke-opacity="0.99" stroke-width="0.3"><path d="
M 363.00 512.00 
L 403.00 512.00
C 406.83 509.15 413.31 499.49 405.75 494.25 C 398.18 489.02 384.45 493.53 375.00 492.00
C 375.00 485.33 375.00 478.67 375.00 472.00
C 387.85 472.96 408.13 474.81 406.39 460.75 C 404.66 446.70 386.67 453.40 375.00 453.00
C 379.18 446.09 367.09 431.32 381.00 432.00 C 394.91 432.68 412.38 435.24 409.00 418.00
C 400.97 408.24 386.17 415.20 372.00 413.00 C 357.83 410.80 354.38 420.39 356.00 434.00 C 357.62 447.61 354.77 466.42 356.00 480.00 C 357.23 493.58 351.62 506.37 363.00 512.00 Z"/>
</g>
<g fill="None" fill-opacity="0.0" stroke="#000000" stroke-opacity="0.04" stroke-width="0.3"><path d="
M 203.00 454.00 
C 213.45 455.10 225.86 453.66 226.06 443.08 C 226.27 432.50 213.76 431.14 203.00 432.00
C 203.00 439.33 203.00 446.67 203.00 454.00 Z"/>
</g>
<g fill="None" fill-opacity="0.0" stroke="#000000" stroke-opacity="0.04" stroke-width="0.3"><path d="
M 197.00 512.00 
L 233.00 512.00
C 221.85 501.03 213.79 491.65 204.00 480.00
C 201.08 490.83 206.43 507.21 197.00 512.00 Z"/>
</g>
<g fill="#000000" fill-opacity="0.01" stroke="None">
<path d="
M 0.00 340.00 
C 0.68 325.52 6.93 315.21 16.75 305.75 C 26.57 296.29 34.16 293.81 47.23 292.79 C 60.30 291.77 77.15 294.49 74.87 307.92 C 72.59 321.34 52.75 309.94 42.30 313.64 C 31.86 317.35 21.86 325.19 20.20 337.25 C 18.54 349.30 23.89 361.16 33.77 368.24 C 43.65 375.31 57.35 370.94 70.00 369.00
C 82.10 381.65 68.70 392.98 54.75 392.19 C 40.79 391.40 28.53 390.89 18.75 381.81 C 8.96 372.73 1.72 361.27 0.00 348.00
L 0.00 512.00
L 111.00 512.00
C 98.62 507.38 102.80 493.26 102.00 480.00 C 101.20 466.74 103.25 448.49 102.00 435.00 C 100.75 421.51 105.16 410.49 119.00 413.00 C 132.84 415.51 147.02 408.07 155.00 418.00
C 158.57 434.29 141.26 433.07 128.00 432.00 C 114.74 430.93 125.71 445.48 122.00 452.00
C 128.89 450.43 142.08 450.14 146.75 452.39 C 151.43 454.64 155.45 461.59 150.87 466.92 C 146.29 472.25 140.47 472.44 130.00 471.00 C 119.53 469.56 121.32 485.25 122.00 494.00 C 122.68 502.75 122.87 508.13 117.00 512.00
L 190.00 512.00
C 178.19 504.81 184.09 485.79 183.00 470.00 C 181.91 454.21 183.93 432.84 183.00 418.00
C 189.73 409.80 210.60 412.80 220.25 412.80 C 229.90 412.80 237.26 421.84 242.58 428.77 C 247.89 435.70 246.74 447.04 243.88 454.90 C 241.03 462.76 231.35 471.30 223.00 473.00
C 233.25 484.04 256.65 499.48 240.00 512.00
L 282.00 512.00
C 269.04 507.04 277.40 491.03 275.00 477.00 C 272.60 462.97 278.30 443.40 275.00 429.00 C 271.70 414.60 283.64 409.92 297.00 412.00 C 310.36 414.08 326.09 406.87 327.80 421.25 C 329.51 435.63 304.52 432.68 294.00 432.00
C 295.64 438.45 295.64 446.58 294.00 453.00
C 305.32 453.43 326.66 448.77 325.97 463.03 C 325.29 477.28 306.09 470.37 294.00 472.00
C 294.00 478.67 294.00 485.33 294.00 492.00
C 304.07 492.62 318.04 490.06 324.30 494.71 C 330.57 499.36 326.91 508.56 322.00 512.00
L 363.00 512.00
C 351.62 506.37 357.23 493.58 356.00 480.00 C 354.77 466.42 357.62 447.61 356.00 434.00 C 354.38 420.39 357.83 410.80 372.00 413.00 C 386.17 415.20 400.97 408.24 409.00 418.00
C 412.38 435.24 394.91 432.68 381.00 432.00 C 367.09 431.32 379.18 446.09 375.00 453.00
C 386.67 453.40 404.66 446.70 406.39 460.75 C 408.13 474.81 387.85 472.96 375.00 472.00
C 375.00 478.67 375.00 485.33 375.00 492.00
C 384.45 493.53 398.18 489.02 405.75 494.25 C 413.31 499.49 406.83 509.15 403.00 512.00
L 512.00 512.00
L 512.00 0.00
L 349.00 0.00
C 360.33 2.22 371.45 11.51 370.22 24.22 C 368.99 36.94 347.59 32.84 349.00 20.00
C 333.21 22.68 317.40 41.86 309.25 55.25 C 301.10 68.65 296.59 80.74 291.00 98.00
C 299.42 99.78 306.87 106.18 315.00 116.00
C 322.36 109.81 334.83 88.89 344.23 101.77 C 353.64 114.65 331.93 123.22 329.00 134.00
C 340.95 152.27 344.51 171.46 349.60 196.74 C 354.68 222.02 342.43 247.33 323.70 261.71 C 304.96 276.09 274.92 275.15 256.00 263.00
C 237.36 274.22 209.19 276.72 189.75 262.81 C 170.30 248.90 157.07 222.27 162.20 196.75 C 167.33 171.23 171.45 152.15 183.00 134.00
C 166.70 114.79 155.19 91.58 147.81 69.75 C 140.42 47.92 131.14 6.74 163.00 0.00
L 0.00 0.00
L 0.00 340.00
M 352.00 57.00 
C 364.33 54.74 370.18 71.89 357.25 76.40 C 344.33 80.91 341.12 59.00 352.00 57.00
M 135.00 354.00 
C 143.89 364.25 150.59 366.66 156.19 378.25 C 161.79 389.85 144.13 397.90 137.81 385.75 C 131.48 373.61 120.78 370.27 114.00 360.00
C 111.68 372.56 120.04 392.53 105.25 392.39 C 90.46 392.26 96.17 373.29 95.00 358.00 C 93.83 342.71 97.24 320.04 95.00 304.00 C 92.76 287.96 114.26 294.08 126.00 293.00 C 137.74 291.92 144.24 297.32 151.57 304.77 C 158.90 312.22 158.36 322.29 155.88 332.90 C 153.41 343.51 141.67 349.41 135.00 354.00
M 251.00 298.00 
C 250.48 310.85 251.48 327.98 251.00 342.00 C 250.52 356.02 252.09 365.66 246.81 374.25 C 241.53 382.85 232.01 387.82 224.90 390.91 C 217.79 393.99 205.88 391.89 198.70 389.29 C 191.52 386.69 183.98 381.35 179.74 373.25 C 175.49 365.14 174.14 352.31 176.00 339.00 C 177.86 325.69 172.18 306.17 177.13 297.08 C 182.07 287.99 197.27 293.02 195.01 305.01 C 192.74 317.00 196.34 342.31 195.00 354.00 C 193.66 365.69 203.71 373.56 214.01 372.99 C 224.31 372.43 231.62 364.30 230.00 352.00 C 228.38 339.70 230.56 316.62 230.00 304.00 C 229.44 291.38 244.93 289.46 251.00 298.00
M 358.00 373.00 
C 369.14 369.72 382.08 374.95 378.67 385.67 C 375.26 396.39 357.03 392.43 346.25 391.74 C 335.47 391.04 339.88 374.09 339.00 362.00 C 338.12 349.91 340.48 327.31 339.00 315.00 C 337.52 302.69 339.75 289.23 351.92 293.13 C 364.08 297.03 356.27 312.73 358.00 326.00 C 359.73 339.27 356.70 359.13 358.00 373.00
M 418.00 312.00 
C 419.45 331.60 416.06 360.31 418.00 379.00 C 419.94 397.69 396.57 396.80 398.00 378.00 C 399.43 359.20 396.10 331.13 399.00 312.00
C 389.58 314.69 379.48 308.46 382.40 299.25 C 385.31 290.03 397.67 293.02 408.00 293.00 C 418.33 292.98 431.57 290.05 433.39 299.75 C 435.21 309.46 428.82 313.96 418.00 312.00
M 479.00 321.00 
C 483.10 316.03 488.40 308.63 490.39 302.25 C 492.39 295.87 506.59 286.35 510.75 298.25 C 514.91 310.15 504.56 314.47 502.81 322.25 C 501.06 330.04 493.43 332.83 491.29 341.30 C 489.14 349.77 490.01 372.55 489.22 383.22 C 488.44 393.89 477.52 394.79 470.00 387.00
C 468.08 374.55 474.20 346.12 466.61 337.25 C 459.02 328.37 460.42 320.21 452.61 312.25 C 444.80 304.28 451.20 286.32 462.75 293.39 C 474.30 300.47 472.21 312.69 479.00 321.00
M 293.00 313.00 
C 293.00 319.67 293.00 326.33 293.00 333.00
C 303.94 334.52 318.41 328.60 319.76 341.25 C 321.10 353.89 304.37 353.38 293.00 352.00
C 294.64 358.44 294.64 366.58 293.00 373.00
C 303.60 371.53 324.52 371.15 321.78 384.22 C 319.05 397.29 304.21 391.17 290.00 393.00 C 275.79 394.83 272.02 384.44 273.00 370.00 C 273.98 355.56 273.32 334.98 273.00 321.00 C 272.68 307.02 272.14 292.35 286.01 293.99 C 299.88 295.64 317.98 288.36 321.76 301.25 C 325.53 314.14 302.06 316.20 293.00 313.00 Z"/>
</g>
<g fill="#000000" fill-opacity="0.98" stroke="None">
<path d="
M 349.00 0.00 
L 345.00 0.00
C 324.18 2.39 306.60 24.88 295.81 41.25 C 285.02 57.62 277.85 70.81 272.00 91.00
C 262.25 88.81 249.69 88.60 240.00 91.00
C 234.31 70.43 226.85 58.35 216.30 41.70 C 205.75 25.05 188.43 3.86 169.00 0.00
L 163.00 0.00
C 131.14 6.74 140.42 47.92 147.81 69.75 C 155.19 91.58 166.70 114.79 183.00 134.00
C 171.45 152.15 167.33 171.23 162.20 196.75 C 157.07 222.27 170.30 248.90 189.75 262.81 C 209.19 276.72 237.36 274.22 256.00 263.00
C 274.92 275.15 304.96 276.09 323.70 261.71 C 342.43 247.33 354.68 222.02 349.60 196.74 C 344.51 171.46 340.95 152.27 329.00 134.00
C 331.93 123.22 353.64 114.65 344.23 101.77 C 334.83 88.89 322.36 109.81 315.00 116.00
C 306.87 106.18 299.42 99.78 291.00 98.00
C 296.59 80.74 301.10 68.65 309.25 55.25 C 317.40 41.86 333.21 22.68 349.00 20.00
C 347.59 32.84 368.99 36.94 370.22 24.22 C 371.45 11.51 360.33 2.22 349.00 0.00
M 221.00 98.00 
C 212.58 99.78 205.13 106.18 197.00 116.00
C 182.82 103.15 176.18 89.04 169.87 74.08 C 163.57 59.12 158.14 38.96 162.00 21.00
C 178.52 20.50 193.98 41.65 202.24 54.77 C 210.49 67.89 215.63 80.93 221.00 98.00
M 266.00 247.00 
C 262.13 233.88 283.42 229.35 279.69 218.30 C 275.96 207.26 262.38 210.46 257.00 221.00
C 248.46 213.31 240.72 206.58 232.00 216.00
C 233.82 218.17 231.71 220.75 231.00 223.00
C 234.42 229.30 249.25 235.90 246.00 247.00
C 227.81 258.38 199.77 250.99 187.92 233.08 C 176.07 215.17 184.50 187.45 189.13 169.08 C 193.76 150.72 206.23 128.69 224.77 117.43 C 243.31 106.17 267.86 106.52 286.77 117.58 C 305.68 128.63 317.67 149.78 322.35 168.70 C 327.03 187.61 336.15 212.80 324.42 231.77 C 312.70 250.74 284.81 258.78 266.00 247.00 Z"/>
</g>
<g fill="#000000" fill-opacity="0.01" stroke="None">
<path d="
M 345.00 0.00 
L 169.00 0.00
C 188.43 3.86 205.75 25.05 216.30 41.70 C 226.85 58.35 234.31 70.43 240.00 91.00
C 249.69 88.60 262.25 88.81 272.00 91.00
C 277.85 70.81 285.02 57.62 295.81 41.25 C 306.60 24.88 324.18 2.39 345.00 0.00 Z"/>
</g>
<g fill="#000000" fill-opacity="0.02" stroke="None">
<path d="
M 221.00 98.00 
C 215.63 80.93 210.49 67.89 202.24 54.77 C 193.98 41.65 178.52 20.50 162.00 21.00
C 158.14 38.96 163.57 59.12 169.87 74.08 C 176.18 89.04 182.82 103.15 197.00 116.00
C 205.13 106.18 212.58 99.78 221.00 98.00 Z"/>
</g>
<g fill="#000000" fill-opacity="0.95" stroke="None">
<path d="
M 352.00 57.00 
C 341.12 59.00 344.33 80.91 357.25 76.40 C 370.18 71.89 364.33 54.74 352.00 57.00 Z"/>
</g>
<g fill="#000000" fill-opacity="0.02" stroke="None">
<path d="
M 266.00 247.00 
C 284.81 258.78 312.70 250.74 324.42 231.77 C 336.15 212.80 327.03 187.61 322.35 168.70 C 317.67 149.78 305.68 128.63 286.77 117.58 C 267.86 106.52 243.31 106.17 224.77 117.43 C 206.23 128.69 193.76 150.72 189.13 169.08 C 184.50 187.45 176.07 215.17 187.92 233.08 C 199.77 250.99 227.81 258.38 246.00 247.00
C 249.25 235.90 234.42 229.30 231.00 223.00
C 231.71 220.75 233.82 218.17 232.00 216.00
C 240.72 206.58 248.46 213.31 257.00 221.00
C 262.38 210.46 275.96 207.26 279.69 218.30 C 283.42 229.35 262.13 233.88 266.00 247.00
M 239.00 189.00 
C 225.88 190.85 219.35 176.78 230.00 169.00
C 243.23 166.46 249.72 180.01 239.00 189.00
M 281.00 169.00 
C 291.91 176.89 283.14 192.84 272.08 187.87 C 261.02 182.90 267.43 165.25 281.00 169.00 Z"/>
</g>
<g fill="#000000" fill-opacity="0.95" stroke="None">
<path d="
M 239.00 189.00 
C 249.72 180.01 243.23 166.46 230.00 169.00
C 219.35 176.78 225.88 190.85 239.00 189.00 Z"/>
</g>
<g fill="#000000" fill-opacity="0.95" stroke="None">
<path d="
M 281.00 169.00 
C 267.43 165.25 261.02 182.90 272.08 187.87 C 283.14 192.84 291.91 176.89 281.00 169.00 Z"/>
</g>
<g fill="#000000" fill-opacity="0.97" stroke="None">
<path d="
M 0.00 340.00 
L 0.00 348.00
C 1.72 361.27 8.96 372.73 18.75 381.81 C 28.53 390.89 40.79 391.40 54.75 392.19 C 68.70 392.98 82.10 381.65 70.00 369.00
C 57.35 370.94 43.65 375.31 33.77 368.24 C 23.89 361.16 18.54 349.30 20.20 337.25 C 21.86 325.19 31.86 317.35 42.30 313.64 C 52.75 309.94 72.59 321.34 74.87 307.92 C 77.15 294.49 60.30 291.77 47.23 292.79 C 34.16 293.81 26.57 296.29 16.75 305.75 C 6.93 315.21 0.68 325.52 0.00 340.00 Z"/>
</g>
<g fill="#000000" fill-opacity="0.98" stroke="None">
<path d="
M 135.00 354.00 
C 141.67 349.41 153.41 343.51 155.88 332.90 C 158.36 322.29 158.90 312.22 151.57 304.77 C 144.24 297.32 137.74 291.92 126.00 293.00 C 114.26 294.08 92.76 287.96 95.00 304.00 C 97.24 320.04 93.83 342.71 95.00 358.00 C 96.17 373.29 90.46 392.26 105.25 392.39 C 120.04 392.53 111.68 372.56 114.00 360.00
C 120.78 370.27 131.48 373.61 137.81 385.75 C 144.13 397.90 161.79 389.85 156.19 378.25 C 150.59 366.66 143.89 364.25 135.00 354.00
M 114.00 334.00 
C 114.00 326.67 114.00 319.33 114.00 312.00
C 123.73 311.45 137.70 312.24 137.93 323.08 C 138.17 333.93 123.90 335.07 114.00 334.00 Z"/>
</g>
<g fill="#000000" fill-opacity="0.97" stroke="None">
<path d="
M 251.00 298.00 
C 244.93 289.46 229.44 291.38 230.00 304.00 C 230.56 316.62 228.38 339.70 230.00 352.00 C 231.62 364.30 224.31 372.43 214.01 372.99 C 203.71 373.56 193.66 365.69 195.00 354.00 C 196.34 342.31 192.74 317.00 195.01 305.01 C 197.27 293.02 182.07 287.99 177.13 297.08 C 172.18 306.17 177.86 325.69 176.00 339.00 C 174.14 352.31 175.49 365.14 179.74 373.25 C 183.98 381.35 191.52 386.69 198.70 389.29 C 205.88 391.89 217.79 393.99 224.90 390.91 C 232.01 387.82 241.53 382.85 246.81 374.25 C 252.09 365.66 250.52 356.02 251.00 342.00 C 251.48 327.98 250.48 310.85 251.00 298.00 Z"/>
</g>
<g fill="#000000" fill-opacity="0.99" stroke="None">
<path d="
M 358.00 373.00 
C 356.70 359.13 359.73 339.27 358.00 326.00 C 356.27 312.73 364.08 297.03 351.92 293.13 C 339.75 289.23 337.52 302.69 339.00 315.00 C 340.48 327.31 338.12 349.91 339.00 362.00 C 339.88 374.09 335.47 391.04 346.25 391.74 C 357.03 392.43 375.26 396.39 378.67 385.67 C 382.08 374.95 369.14 369.72 358.00 373.00 Z"/>
</g>
<g fill="#000000" fill-opacity="0.98" stroke="None">
<path d="
M 418.00 312.00 
C 428.82 313.96 435.21 309.46 433.39 299.75 C 431.57 290.05 418.33 292.98 408.00 293.00 C 397.67 293.02 385.31 290.03 382.40 299.25 C 379.48 308.46 389.58 314.69 399.00 312.00
C 396.10 331.13 399.43 359.20 398.00 378.00 C 396.57 396.80 419.94 397.69 418.00 379.00 C 416.06 360.31 419.45 331.60 418.00 312.00 Z"/>
</g>
<g fill="#000000" fill-opacity="0.98" stroke="None">
<path d="
M 479.00 321.00 
C 472.21 312.69 474.30 300.47 462.75 293.39 C 451.20 286.32 444.80 304.28 452.61 312.25 C 460.42 320.21 459.02 328.37 466.61 337.25 C 474.20 346.12 468.08 374.55 470.00 387.00
C 477.52 394.79 488.44 393.89 489.22 383.22 C 490.01 372.55 489.14 349.77 491.29 341.30 C 493.43 332.83 501.06 330.04 502.81 322.25 C 504.56 314.47 514.91 310.15 510.75 298.25 C 506.59 286.35 492.39 295.87 490.39 302.25 C 488.40 308.63 483.10 316.03 479.00 321.00 Z"/>
</g>
<g fill="#000000" fill-opacity="0.97" stroke="None">
<path d="
M 293.00 313.00 
C 302.06 316.20 325.53 314.14 321.76 301.25 C 317.98 288.36 299.88 295.64 286.01 293.99 C 272.14 292.35 272.68 307.02 273.00 321.00 C 273.32 334.98 273.98 355.56 273.00 370.00 C 272.02 384.44 275.79 394.83 290.00 393.00 C 304.21 391.17 319.05 397.29 321.78 384.22 C 324.52 371.15 303.60 371.53 293.00 373.00
C 294.64 366.58 294.64 358.44 293.00 352.00
C 304.37 353.38 321.10 353.89 319.76 341.25 C 318.41 328.60 303.94 334.52 293.00 333.00
C 293.00 326.33 293.00 319.67 293.00 313.00 Z"/>
</g>
<g fill="#000000" fill-opacity="0.05" stroke="None">
<path d="
M 114.00 334.00 
C 123.90 335.07 138.17 333.93 137.93 323.08 C 137.70 312.24 123.73 311.45 114.00 312.00
C 114.00 319.33 114.00 326.67 114.00 334.00 Z"/>
</g>
<g fill="#000000" fill-opacity="0.96" stroke="None">
<path d="
M 111.00 512.00 
L 117.00 512.00
C 122.87 508.13 122.68 502.75 122.00 494.00 C 121.32 485.25 119.53 469.56 130.00 471.00 C 140.47 472.44 146.29 472.25 150.87 466.92 C 155.45 461.59 151.43 454.64 146.75 452.39 C 142.08 450.14 128.89 450.43 122.00 452.00
C 125.71 445.48 114.74 430.93 128.00 432.00 C 141.26 433.07 158.57 434.29 155.00 418.00
C 147.02 408.07 132.84 415.51 119.00 413.00 C 105.16 410.49 100.75 421.51 102.00 435.00 C 103.25 448.49 101.20 466.74 102.00 480.00 C 102.80 493.26 98.62 507.38 111.00 512.00 Z"/>
</g>
<g fill="#000000" fill-opacity="0.98" stroke="None">
<path d="
M 190.00 512.00 
L 197.00 512.00
C 206.43 507.21 201.08 490.83 204.00 480.00
C 213.79 491.65 221.85 501.03 233.00 512.00
L 240.00 512.00
C 256.65 499.48 233.25 484.04 223.00 473.00
C 231.35 471.30 241.03 462.76 243.88 454.90 C 246.74 447.04 247.89 435.70 242.58 428.77 C 237.26 421.84 229.90 412.80 220.25 412.80 C 210.60 412.80 189.73 409.80 183.00 418.00
C 183.93 432.84 181.91 454.21 183.00 470.00 C 184.09 485.79 178.19 504.81 190.00 512.00
M 203.00 454.00 
C 203.00 446.67 203.00 439.33 203.00 432.00
C 213.76 431.14 226.27 432.50 226.06 443.08 C 225.86 453.66 213.45 455.10 203.00 454.00 Z"/>
</g>
<g fill="#000000" fill-opacity="0.98" stroke="None">
<path d="
M 282.00 512.00 
L 322.00 512.00
C 326.91 508.56 330.57 499.36 324.30 494.71 C 318.04 490.06 304.07 492.62 294.00 492.00
C 294.00 485.33 294.00 478.67 294.00 472.00
C 306.09 470.37 325.29 477.28 325.97 463.03 C 326.66 448.77 305.32 453.43 294.00 453.00
C 295.64 446.58 295.64 438.45 294.00 432.00
C 304.52 432.68 329.51 435.63 327.80 421.25 C 326.09 406.87 310.36 414.08 297.00 412.00 C 283.64 409.92 271.70 414.60 275.00 429.00 C 278.30 443.40 272.60 462.97 275.00 477.00 C 277.40 491.03 269.04 507.04 282.00 512.00 Z"/>
</g>
<g fill="#000000" fill-opacity="0.99" stroke="None">
<path d="
M 363.00 512.00 
L 403.00 512.00
C 406.83 509.15 413.31 499.49 405.75 494.25 C 398.18 489.02 384.45 493.53 375.00 492.00
C 375.00 485.33 375.00 478.67 375.00 472.00
C 387.85 472.96 408.13 474.81 406.39 460.75 C 404.66 446.70 386.67 453.40 375.00 453.00
C 379.18 446.09 367.09 431.32 381.00 432.00 C 394.91 432.68 412.38 435.24 409.00 418.00
C 400.97 408.24 386.17 415.20 372.00 413.00 C 357.83 410.80 354.38 420.39 356.00 434.00 C 357.62 447.61 354.77 466.42 356.00 480.00 C 357.23 493.58 351.62 506.37 363.00 512.00 Z"/>
</g>
<g fill="#000000" fill-opacity="0.04" stroke="None">
<path d="
M 203.00 454.00 
C 213.45 455.10 225.86 453.66 226.06 443.08 C 226.27 432.50 213.76 431.14 203.00 432.00
C 203.00 439.33 203.00 446.67 203.00 454.00 Z"/>
</g>
<g fill="#000000" fill-opacity="0.04" stroke="None">
<path d="
M 197.00 512.00 
L 233.00 512.00
C 221.85 501.03 213.79 491.65 204.00 480.00
C 201.08 490.83 206.43 507.21 197.00 512.00 Z"/>
</g>
</svg>