<svg xmlns="http://www.w3.org/2000/svg" xmlns:v="https://svgstorm.com"
viewBox = "0 0 512 512"
>
<g fill="None" fill-opacity="0.0" stroke="#000000" stroke-opacity="0.00" stroke-width="0.3"><path d="
M 0.00 237.00 
C 6.56 115.29 115.37 6.56 237.00 0.00
L 0.00 0.00
L 0.00 237.00 Z"/>
</g>
<g fill="None" fill-opacity="0.0" stroke="#000000" stroke-opacity="0.97" stroke-width="0.3"><path d="
M 0.00 237.00 
L 0.00 243.00
C 1.56 245.61 1.72 251.46 0.00 254.00
L 0.00 272.00
C 4.67 395.03 114.45 505.38 237.00 512.00
L 243.00 512.00
C 245.61 510.44 251.46 510.28 254.00 512.00
L 272.00 512.00
C 395.95 507.27 507.27 395.87 512.00 272.00
L 512.00 254.00
C 510.44 251.39 510.28 245.54 512.00 243.00
L 512.00 237.00
C 505.36 114.37 394.95 4.68 272.00 0.00
L 254.00 0.00
C 251.39 1.56 245.54 1.72 243.00 0.00
L 237.00 0.00
C 115.37 6.56 6.56 115.29 0.00 237.00
M 490.00 197.00 
C 334.00 197.00 178.00 197.00 22.00 197.00
C 46.57 91.65 148.54 14.03 256.02 14.02 C 363.50 14.02 465.44 91.69 490.00 197.00
M 121.00 210.00 
C 130.74 236.04 143.41 261.17 154.00 287.00
C 156.33 262.24 154.33 235.52 155.00 210.00
C 166.89 208.99 161.06 224.66 162.00 234.00 C 162.94 243.34 161.52 255.06 162.00 265.00 C 162.48 274.94 161.64 286.88 162.00 297.00
C 158.33 297.00 154.67 297.00 151.00 297.00
C 141.84 271.22 128.22 246.79 119.00 221.00
C 114.86 230.85 117.65 245.58 117.00 258.00 C 116.35 270.42 117.49 284.43 117.00 297.00
C 105.11 298.01 110.94 282.34 110.00 273.00 C 109.06 263.66 110.48 251.94 110.00 242.00 C 109.52 232.06 110.36 220.12 110.00 210.00
C 113.67 210.00 117.33 210.00 121.00 210.00
M 407.00 210.00 
C 407.00 239.00 407.00 268.00 407.00 297.00
C 395.32 297.90 400.40 280.46 400.00 271.00 C 399.60 261.54 399.40 246.49 400.00 237.00 C 400.60 227.51 395.07 209.17 407.00 210.00
M 239.00 215.00 
C 239.00 221.00 239.00 227.00 239.00 233.00
C 242.67 233.00 246.33 233.00 250.00 233.00
C 252.10 240.39 243.29 237.46 239.00 238.00
C 239.13 248.01 238.83 260.21 239.00 270.00 C 239.17 279.79 235.45 295.15 250.00 292.00
C 245.25 306.07 228.24 293.46 232.00 280.00 C 235.76 266.54 229.18 251.59 232.00 238.00
C 229.00 238.00 226.00 238.00 223.00 238.00
C 220.96 231.51 227.95 233.06 232.00 233.00
C 233.38 226.42 227.56 212.11 239.00 215.00
M 219.00 292.00 
C 221.19 303.13 202.18 297.23 207.00 288.00
C 202.38 295.41 197.54 298.14 188.78 298.22 C 180.01 298.29 173.49 292.02 173.01 282.99 C 172.52 273.97 176.81 267.12 184.23 263.23 C 191.65 259.34 202.13 263.01 205.92 253.92 C 209.70 244.83 202.32 235.18 192.00 237.00 C 181.68 238.82 185.28 252.18 175.00 251.00
C 175.62 237.89 182.02 231.36 196.00 231.00 C 209.98 230.64 213.51 244.20 213.00 256.00 C 212.49 267.80 208.94 287.56 219.00 292.00
M 339.00 231.00 
C 341.06 241.45 328.44 236.31 324.08 244.08 C 319.72 251.85 319.54 258.63 320.00 268.00 C 320.46 277.37 319.65 287.56 320.00 297.00
C 309.72 299.25 313.37 288.32 313.00 281.00 C 312.63 273.68 313.19 264.64 313.00 257.00 C 312.81 249.36 313.14 240.73 313.00 233.00
C 321.09 230.31 319.43 237.50 321.00 242.00
C 324.41 234.99 331.20 230.54 339.00 231.00
M 390.00 292.00 
C 391.77 303.15 374.78 296.93 377.00 289.00
C 372.74 297.20 366.80 298.37 357.98 298.02 C 349.15 297.67 343.92 289.78 344.00 281.00 C 344.08 272.22 348.79 266.51 356.08 263.08 C 363.36 259.64 374.18 262.30 376.97 252.97 C 379.76 243.64 373.42 235.57 363.00 237.00 C 352.58 238.43 356.36 252.49 346.00 251.00
C 346.61 237.89 353.02 231.36 367.00 231.00 C 380.98 230.64 384.51 244.20 384.00 256.00 C 383.49 267.80 379.94 287.55 390.00 292.00
M 265.00 233.00 
C 264.06 249.33 265.82 264.97 265.98 281.02 C 266.13 297.08 288.78 296.20 290.98 280.98 C 293.17 265.75 291.46 248.72 292.00 233.00
C 301.57 231.51 297.42 243.00 298.00 250.00 C 298.58 257.00 297.71 265.56 298.00 273.00 C 298.29 280.44 297.78 289.42 298.00 297.00
C 290.63 299.40 294.48 290.96 292.00 288.00
C 288.66 295.78 282.01 297.71 274.00 298.00 C 265.99 298.29 258.16 292.78 259.00 284.00 C 259.84 275.21 257.84 264.37 259.00 256.00 C 260.16 247.63 254.31 232.56 265.00 233.00
M 491.00 311.00 
C 468.17 418.11 364.93 498.03 255.98 497.98 C 147.02 497.92 43.81 418.17 21.00 311.00
C 177.67 311.00 334.33 311.00 491.00 311.00 Z"/>
</g>
<g fill="None" fill-opacity="0.0" stroke="#000000" stroke-opacity="0.80" stroke-width="0.3"><path d="
M 254.00 0.00 
L 243.00 0.00
C 245.54 1.72 251.39 1.56 254.00 0.00 Z"/>
</g>
<g fill="None" fill-opacity="0.0" stroke="#000000" stroke-opacity="0.00" stroke-width="0.3"><path d="
M 512.00 237.00 
L 512.00 0.00
L 272.00 0.00
C 394.95 4.68 505.36 114.37 512.00 237.00 Z"/>
</g>
<g fill="None" fill-opacity="0.0" stroke="#000000" stroke-opacity="0.00" stroke-width="0.3"><path d="
M 490.00 197.00 
C 465.44 91.69 363.50 14.02 256.02 14.02 C 148.54 14.03 46.57 91.65 22.00 197.00
C 178.00 197.00 334.00 197.00 490.00 197.00
M 177.00 86.00 
C 177.00 113.00 177.00 140.00 177.00 167.00
C 164.61 167.38 171.25 150.14 170.00 140.00 C 168.75 129.86 170.94 115.52 170.00 105.00
C 164.00 105.00 158.00 105.00 152.00 105.00
C 151.02 97.63 160.80 100.30 165.69 96.69 C 170.59 93.09 170.50 85.23 177.00 86.00
M 219.00 86.00 
C 239.44 89.66 235.19 115.66 237.00 131.00 C 238.81 146.34 230.73 173.63 210.00 168.00 C 189.27 162.37 194.12 139.81 192.93 123.93 C 191.74 108.04 196.92 82.04 219.00 86.00
M 274.00 86.00 
C 294.02 88.50 291.16 115.51 292.22 130.22 C 293.29 144.93 286.92 173.11 266.00 168.00 C 245.08 162.89 248.52 139.56 247.00 123.00 C 245.48 106.44 253.82 83.48 274.00 86.00
M 322.00 86.00 
C 340.34 89.80 334.59 133.27 314.78 127.22 C 294.96 121.17 301.40 81.73 322.00 86.00
M 359.00 86.00 
C 355.00 95.28 351.59 105.03 347.08 114.08 C 342.56 123.12 339.77 134.28 335.02 143.02 C 330.28 151.77 329.24 166.22 319.00 168.00
C 323.18 158.80 326.59 149.00 330.92 139.92 C 335.26 130.84 338.62 120.07 343.31 111.31 C 347.99 102.54 348.61 87.77 359.00 86.00
M 366.00 127.00 
C 375.86 129.99 373.56 144.25 374.00 153.00 C 374.44 161.75 364.94 172.13 354.78 167.22 C 344.61 162.31 346.15 152.47 346.00 142.00 C 345.85 131.53 355.10 123.69 366.00 127.00 Z"/>
</g>
<g fill="None" fill-opacity="0.0" stroke="#000000" stroke-opacity="0.98" stroke-width="0.3"><path d="
M 177.00 86.00 
C 170.50 85.23 170.59 93.09 165.69 96.69 C 160.80 100.30 151.02 97.63 152.00 105.00
C 158.00 105.00 164.00 105.00 170.00 105.00
C 170.94 115.52 168.75 129.86 170.00 140.00 C 171.25 150.14 164.61 167.38 177.00 167.00
C 177.00 140.00 177.00 113.00 177.00 86.00 Z"/>
</g>
<g fill="None" fill-opacity="0.0" stroke="#000000" stroke-opacity="0.98" stroke-width="0.3"><path d="
M 219.00 86.00 
C 196.92 82.04 191.74 108.04 192.93 123.93 C 194.12 139.81 189.27 162.37 210.00 168.00 C 230.73 173.63 238.81 146.34 237.00 131.00 C 235.19 115.66 239.44 89.66 219.00 86.00
M 217.00 91.00 
C 233.57 93.15 228.13 117.76 230.00 129.00 C 231.87 140.24 228.40 166.93 212.00 163.00 C 195.60 159.07 200.45 136.64 199.00 125.00 C 197.55 113.36 200.65 88.88 217.00 91.00 Z"/>
</g>
<g fill="None" fill-opacity="0.0" stroke="#000000" stroke-opacity="0.98" stroke-width="0.3"><path d="
M 274.00 86.00 
C 253.82 83.48 245.48 106.44 247.00 123.00 C 248.52 139.56 245.08 162.89 266.00 168.00 C 286.92 173.11 293.29 144.93 292.22 130.22 C 291.16 115.51 294.02 88.50 274.00 86.00
M 272.00 91.00 
C 286.88 92.25 285.73 117.04 286.00 128.00 C 286.27 138.96 285.82 164.61 269.00 163.00 C 252.18 161.39 255.27 138.32 255.00 126.00 C 254.73 113.68 253.60 89.45 272.00 91.00 Z"/>
</g>
<g fill="None" fill-opacity="0.0" stroke="#000000" stroke-opacity="0.96" stroke-width="0.3"><path d="
M 322.00 86.00 
C 301.40 81.73 294.96 121.17 314.78 127.22 C 334.59 133.27 340.34 89.80 322.00 86.00
M 319.00 91.00 
C 330.34 92.16 328.76 123.95 317.31 122.65 C 305.85 121.34 306.76 89.75 319.00 91.00 Z"/>
</g>
<g fill="None" fill-opacity="0.0" stroke="#000000" stroke-opacity="0.99" stroke-width="0.3"><path d="
M 359.00 86.00 
C 348.61 87.77 347.99 102.54 343.31 111.31 C 338.62 120.07 335.26 130.84 330.92 139.92 C 326.59 149.00 323.18 158.80 319.00 168.00
C 329.24 166.22 330.28 151.77 335.02 143.02 C 339.77 134.28 342.56 123.12 347.08 114.08 C 351.59 105.03 355.00 95.28 359.00 86.00 Z"/>
</g>
<g fill="None" fill-opacity="0.0" stroke="#000000" stroke-opacity="0.02" stroke-width="0.3"><path d="
M 217.00 91.00 
C 200.65 88.88 197.55 113.36 199.00 125.00 C 200.45 136.64 195.60 159.07 212.00 163.00 C 228.40 166.93 231.87 140.24 230.00 129.00 C 228.13 117.76 233.57 93.15 217.00 91.00 Z"/>
</g>
<g fill="None" fill-opacity="0.0" stroke="#000000" stroke-opacity="0.03" stroke-width="0.3"><path d="
M 272.00 91.00 
C 253.60 89.45 254.73 113.68 255.00 126.00 C 255.27 138.32 252.18 161.39 269.00 163.00 C 285.82 164.61 286.27 138.96 286.00 128.00 C 285.73 117.04 286.88 92.25 272.00 91.00 Z"/>
</g>
<g fill="None" fill-opacity="0.0" stroke="#000000" stroke-opacity="0.01" stroke-width="0.3"><path d="
M 319.00 91.00 
C 306.76 89.75 305.85 121.34 317.31 122.65 C 328.76 123.95 330.34 92.16 319.00 91.00 Z"/>
</g>
<g fill="None" fill-opacity="0.0" stroke="#000000" stroke-opacity="0.96" stroke-width="0.3"><path d="
M 366.00 127.00 
C 355.10 123.69 345.85 131.53 346.00 142.00 C 346.15 152.47 344.61 162.31 354.78 167.22 C 364.94 172.13 374.44 161.75 374.00 153.00 C 373.56 144.25 375.86 129.99 366.00 127.00
M 363.00 132.00 
C 368.16 133.93 368.10 145.53 368.00 150.00 C 367.90 154.47 365.69 166.96 357.00 163.00 C 348.31 159.04 349.70 127.02 363.00 132.00 Z"/>
</g>
<g fill="None" fill-opacity="0.0" stroke="#000000" stroke-opacity="0.00" stroke-width="0.3"><path d="
M 363.00 132.00 
C 349.70 127.02 348.31 159.04 357.00 163.00 C 365.69 166.96 367.90 154.47 368.00 150.00 C 368.10 145.53 368.16 133.93 363.00 132.00 Z"/>
</g>
<g fill="None" fill-opacity="0.0" stroke="#000000" stroke-opacity="0.00" stroke-width="0.3"><path d="
M 121.00 210.00 
C 117.33 210.00 113.67 210.00 110.00 210.00
C 110.36 220.12 109.52 232.06 110.00 242.00 C 110.48 251.94 109.06 263.66 110.00 273.00 C 110.94 282.34 105.11 298.01 117.00 297.00
C 117.49 284.43 116.35 270.42 117.00 258.00 C 117.65 245.58 114.86 230.85 119.00 221.00
C 128.22 246.79 141.84 271.22 151.00 297.00
C 154.67 297.00 158.33 297.00 162.00 297.00
C 161.64 286.88 162.48 274.94 162.00 265.00 C 161.52 255.06 162.94 243.34 162.00 234.00 C 161.06 224.66 166.89 208.99 155.00 210.00
C 154.33 235.52 156.33 262.24 154.00 287.00
C 143.41 261.17 130.74 236.04 121.00 210.00 Z"/>
</g>
<g fill="None" fill-opacity="0.0" stroke="#000000" stroke-opacity="0.00" stroke-width="0.3"><path d="
M 407.00 210.00 
C 395.07 209.17 400.60 227.51 400.00 237.00 C 399.40 246.49 399.60 261.54 400.00 271.00 C 400.40 280.46 395.32 297.90 407.00 297.00
C 407.00 268.00 407.00 239.00 407.00 210.00 Z"/>
</g>
<g fill="None" fill-opacity="0.0" stroke="#000000" stroke-opacity="0.00" stroke-width="0.3"><path d="
M 239.00 215.00 
C 227.56 212.11 233.38 226.42 232.00 233.00
C 227.95 233.06 220.96 231.51 223.00 238.00
C 226.00 238.00 229.00 238.00 232.00 238.00
C 229.18 251.59 235.76 266.54 232.00 280.00 C 228.24 293.46 245.25 306.07 250.00 292.00
C 235.45 295.15 239.17 279.79 239.00 270.00 C 238.83 260.21 239.13 248.01 239.00 238.00
C 243.29 237.46 252.10 240.39 250.00 233.00
C 246.33 233.00 242.67 233.00 239.00 233.00
C 239.00 227.00 239.00 221.00 239.00 215.00 Z"/>
</g>
<g fill="None" fill-opacity="0.0" stroke="#000000" stroke-opacity="0.02" stroke-width="0.3"><path d="
M 219.00 292.00 
C 208.94 287.56 212.49 267.80 213.00 256.00 C 213.51 244.20 209.98 230.64 196.00 231.00 C 182.02 231.36 175.62 237.89 175.00 251.00
C 185.28 252.18 181.68 238.82 192.00 237.00 C 202.32 235.18 209.70 244.83 205.92 253.92 C 202.13 263.01 191.65 259.34 184.23 263.23 C 176.81 267.12 172.52 273.97 173.01 282.99 C 173.49 292.02 180.01 298.29 188.78 298.22 C 197.54 298.14 202.38 295.41 207.00 288.00
C 202.18 297.23 221.19 303.13 219.00 292.00
M 206.00 261.00 
C 211.92 272.90 198.64 303.91 183.75 289.25 C 168.87 274.59 197.12 263.93 206.00 261.00 Z"/>
</g>
<g fill="None" fill-opacity="0.0" stroke="#000000" stroke-opacity="0.00" stroke-width="0.3"><path d="
M 339.00 231.00 
C 331.20 230.54 324.41 234.99 321.00 242.00
C 319.43 237.50 321.09 230.31 313.00 233.00
C 313.14 240.73 312.81 249.36 313.00 257.00 C 313.19 264.64 312.63 273.68 313.00 281.00 C 313.37 288.32 309.72 299.25 320.00 297.00
C 319.65 287.56 320.46 277.37 320.00 268.00 C 319.54 258.63 319.72 251.85 324.08 244.08 C 328.44 236.31 341.06 241.45 339.00 231.00 Z"/>
</g>
<g fill="None" fill-opacity="0.0" stroke="#000000" stroke-opacity="0.02" stroke-width="0.3"><path d="
M 390.00 292.00 
C 379.94 287.55 383.49 267.80 384.00 256.00 C 384.51 244.20 380.98 230.64 367.00 231.00 C 353.02 231.36 346.61 237.89 346.00 251.00
C 356.36 252.49 352.58 238.43 363.00 237.00 C 373.42 235.57 379.76 243.64 376.97 252.97 C 374.18 262.30 363.36 259.64 356.08 263.08 C 348.79 266.51 344.08 272.22 344.00 281.00 C 343.92 289.78 349.15 297.67 357.98 298.02 C 366.80 298.37 372.74 297.20 377.00 289.00
C 374.78 296.93 391.77 303.15 390.00 292.00
M 377.00 261.00 
C 383.07 272.93 369.60 303.90 354.75 289.25 C 339.91 274.60 368.09 263.92 377.00 261.00 Z"/>
</g>
<g fill="None" fill-opacity="0.0" stroke="#000000" stroke-opacity="0.00" stroke-width="0.3"><path d="
M 265.00 233.00 
C 254.31 232.56 260.16 247.63 259.00 256.00 C 257.84 264.37 259.84 275.21 259.00 284.00 C 258.16 292.78 265.99 298.29 274.00 298.00 C 282.01 297.71 288.66 295.78 292.00 288.00
C 294.48 290.96 290.63 299.40 298.00 297.00
C 297.78 289.42 298.29 280.44 298.00 273.00 C 297.71 265.56 298.58 257.00 298.00 250.00 C 297.42 243.00 301.57 231.51 292.00 233.00
C 291.46 248.72 293.17 265.75 290.98 280.98 C 288.78 296.20 266.13 297.08 265.98 281.02 C 265.82 264.97 264.06 249.33 265.00 233.00 Z"/>
</g>
<g fill="None" fill-opacity="0.0" stroke="#000000" stroke-opacity="0.80" stroke-width="0.3"><path d="
M 0.00 254.00 
C 1.72 251.46 1.56 245.61 0.00 243.00
L 0.00 254.00 Z"/>
</g>
<g fill="None" fill-opacity="0.0" stroke="#000000" stroke-opacity="0.80" stroke-width="0.3"><path d="
M 512.00 254.00 
L 512.00 243.00
C 510.28 245.54 510.44 251.39 512.00 254.00 Z"/>
</g>
<g fill="None" fill-opacity="0.0" stroke="#000000" stroke-opacity="1.00" stroke-width="0.3"><path d="
M 206.00 261.00 
C 197.12 263.93 168.87 274.59 183.75 289.25 C 198.64 303.91 211.92 272.90 206.00 261.00 Z"/>
</g>
<g fill="None" fill-opacity="0.0" stroke="#000000" stroke-opacity="1.00" stroke-width="0.3"><path d="
M 377.00 261.00 
C 368.09 263.92 339.91 274.60 354.75 289.25 C 369.60 303.90 383.07 272.93 377.00 261.00 Z"/>
</g>
<g fill="None" fill-opacity="0.0" stroke="#000000" stroke-opacity="0.00" stroke-width="0.3"><path d="
M 0.00 512.00 
L 237.00 512.00
C 114.45 505.38 4.67 395.03 0.00 272.00
L 0.00 512.00 Z"/>
</g>
<g fill="None" fill-opacity="0.0" stroke="#000000" stroke-opacity="0.00" stroke-width="0.3"><path d="
M 272.00 512.00 
L 512.00 512.00
L 512.00 272.00
C 507.27 395.87 395.95 507.27 272.00 512.00 Z"/>
</g>
<g fill="None" fill-opacity="0.0" stroke="#000000" stroke-opacity="0.01" stroke-width="0.3"><path d="
M 491.00 311.00 
C 334.33 311.00 177.67 311.00 21.00 311.00
C 43.81 418.17 147.02 497.92 255.98 497.98 C 364.93 498.03 468.17 418.11 491.00 311.00
M 199.00 356.00 
C 214.33 357.46 214.11 375.91 215.00 388.00 C 215.89 400.09 209.59 418.84 194.00 416.00 C 178.41 413.16 178.46 396.45 178.00 384.00 C 177.54 371.55 183.73 354.54 199.00 356.00
M 344.00 374.00 
C 336.56 374.61 338.94 360.61 329.78 360.22 C 320.61 359.84 316.31 365.83 315.01 374.01 C 313.70 382.19 313.47 391.74 315.00 400.00 C 316.53 408.27 322.75 413.95 331.67 411.67 C 340.59 409.39 336.21 395.30 345.00 396.00
C 348.15 412.18 323.65 423.87 314.75 410.25 C 305.86 396.63 307.35 378.76 313.31 364.31 C 319.27 349.85 347.50 356.76 344.00 374.00
M 419.00 372.00 
C 412.12 370.26 412.32 360.19 402.77 360.79 C 393.23 361.39 389.78 371.41 394.77 378.23 C 399.76 385.05 407.97 383.09 414.23 387.77 C 420.48 392.46 422.86 400.50 419.07 408.07 C 415.29 415.65 406.36 417.07 398.00 416.00 C 389.64 414.93 386.02 405.45 386.00 398.00
C 393.36 398.58 391.75 411.13 401.00 412.00 C 410.26 412.86 417.85 406.91 416.00 398.00 C 414.15 389.09 406.01 388.62 398.93 386.07 C 391.84 383.52 385.87 376.51 388.00 368.00 C 390.13 359.49 396.55 356.14 404.67 356.33 C 412.79 356.52 420.16 363.16 419.00 372.00
M 103.00 390.00 
C 103.00 398.33 103.00 406.67 103.00 415.00
C 94.72 415.85 98.60 405.26 98.00 399.00 C 97.40 392.74 98.31 384.61 98.00 378.00 C 97.69 371.39 98.24 363.71 98.00 357.00
C 110.25 356.27 127.96 355.59 129.98 371.02 C 131.99 386.46 116.12 392.68 103.00 390.00
M 160.00 387.00 
C 173.51 389.35 166.44 406.08 171.00 415.00
C 160.93 414.72 166.08 403.45 163.67 395.33 C 161.26 387.21 149.56 388.65 142.00 389.00
C 142.00 397.67 142.00 406.33 142.00 415.00
C 135.01 414.60 138.58 405.20 138.00 399.00 C 137.42 392.80 138.30 384.58 138.00 378.00 C 137.70 371.42 138.23 363.69 138.00 357.00
C 147.41 357.51 161.63 354.52 167.75 363.25 C 173.88 371.98 167.94 383.01 160.00 387.00
M 225.00 415.00 
C 225.00 395.67 225.00 376.33 225.00 357.00
C 235.79 356.94 251.88 355.61 256.30 367.70 C 260.73 379.78 260.38 392.17 256.68 404.68 C 252.98 417.19 235.64 415.43 225.00 415.00
M 273.00 357.00 
C 272.05 371.45 274.27 386.62 273.00 401.00 C 271.73 415.38 295.49 416.32 295.98 401.98 C 296.46 387.63 295.66 371.50 296.00 357.00
C 305.13 357.44 299.87 370.13 301.00 378.00 C 302.13 385.87 300.40 396.05 300.02 404.02 C 299.65 412.00 292.16 416.01 285.00 416.00 C 277.84 415.99 268.96 414.11 268.22 405.78 C 267.49 397.44 267.56 386.96 268.00 379.00 C 268.44 371.04 264.28 357.58 273.00 357.00
M 383.00 357.00 
C 383.76 364.50 372.66 359.60 368.00 361.00
C 368.00 379.00 368.00 397.00 368.00 415.00
C 358.74 413.80 364.07 399.70 363.00 391.00 C 361.93 382.30 363.80 370.03 363.00 361.00
C 358.00 361.00 353.00 361.00 348.00 361.00
C 348.03 354.05 357.26 357.65 363.00 357.00 C 368.74 356.35 377.03 357.49 383.00 357.00 Z"/>
</g>
<g fill="None" fill-opacity="0.0" stroke="#000000" stroke-opacity="0.98" stroke-width="0.3"><path d="
M 199.00 356.00 
C 183.73 354.54 177.54 371.55 178.00 384.00 C 178.46 396.45 178.41 413.16 194.00 416.00 C 209.59 418.84 215.89 400.09 215.00 388.00 C 214.11 375.91 214.33 357.46 199.00 356.00
M 199.00 360.00 
C 211.52 362.09 208.77 378.54 210.00 388.00 C 211.23 397.46 206.76 415.11 194.00 412.00 C 181.24 408.89 184.05 393.50 183.00 384.00 C 181.95 374.50 186.66 357.94 199.00 360.00 Z"/>
</g>
<g fill="None" fill-opacity="0.0" stroke="#000000" stroke-opacity="0.99" stroke-width="0.3"><path d="
M 344.00 374.00 
C 347.50 356.76 319.27 349.85 313.31 364.31 C 307.35 378.76 305.86 396.63 314.75 410.25 C 323.65 423.87 348.15 412.18 345.00 396.00
C 336.21 395.30 340.59 409.39 331.67 411.67 C 322.75 413.95 316.53 408.27 315.00 400.00 C 313.47 391.74 313.70 382.19 315.01 374.01 C 316.31 365.83 320.61 359.84 329.78 360.22 C 338.94 360.61 336.56 374.61 344.00 374.00 Z"/>
</g>
<g fill="None" fill-opacity="0.0" stroke="#000000" stroke-opacity="0.98" stroke-width="0.3"><path d="
M 419.00 372.00 
C 420.16 363.16 412.79 356.52 404.67 356.33 C 396.55 356.14 390.13 359.49 388.00 368.00 C 385.87 376.51 391.84 383.52 398.93 386.07 C 406.01 388.62 414.15 389.09 416.00 398.00 C 417.85 406.91 410.26 412.86 401.00 412.00 C 391.75 411.13 393.36 398.58 386.00 398.00
C 386.02 405.45 389.64 414.93 398.00 416.00 C 406.36 417.07 415.29 415.65 419.07 408.07 C 422.86 400.50 420.48 392.46 414.23 387.77 C 407.97 383.09 399.76 385.05 394.77 378.23 C 389.78 371.41 393.23 361.39 402.77 360.79 C 412.32 360.19 412.12 370.26 419.00 372.00 Z"/>
</g>
<g fill="None" fill-opacity="0.0" stroke="#000000" stroke-opacity="0.93" stroke-width="0.3"><path d="
M 103.00 390.00 
C 116.12 392.68 131.99 386.46 129.98 371.02 C 127.96 355.59 110.25 356.27 98.00 357.00
C 98.24 363.71 97.69 371.39 98.00 378.00 C 98.31 384.61 97.40 392.74 98.00 399.00 C 98.60 405.26 94.72 415.85 103.00 415.00
C 103.00 406.67 103.00 398.33 103.00 390.00
M 104.00 385.00 
C 104.00 377.33 104.00 369.67 104.00 362.00
C 113.82 361.19 123.58 361.21 124.00 373.00 C 124.42 384.80 114.15 386.50 104.00 385.00 Z"/>
</g>
<g fill="None" fill-opacity="0.0" stroke="#000000" stroke-opacity="0.95" stroke-width="0.3"><path d="
M 160.00 387.00 
C 167.94 383.01 173.88 371.98 167.75 363.25 C 161.63 354.52 147.41 357.51 138.00 357.00
C 138.23 363.69 137.70 371.42 138.00 378.00 C 138.30 384.58 137.42 392.80 138.00 399.00 C 138.58 405.20 135.01 414.60 142.00 415.00
C 142.00 406.33 142.00 397.67 142.00 389.00
C 149.56 388.65 161.26 387.21 163.67 395.33 C 166.08 403.45 160.93 414.72 171.00 415.00
C 166.44 406.08 173.51 389.35 160.00 387.00
M 143.00 384.00 
C 143.00 376.67 143.00 369.33 143.00 362.00
C 152.61 361.07 164.03 361.06 164.00 373.00 C 163.97 384.94 152.48 384.62 143.00 384.00 Z"/>
</g>
<g fill="None" fill-opacity="0.0" stroke="#000000" stroke-opacity="0.99" stroke-width="0.3"><path d="
M 225.00 415.00 
C 235.64 415.43 252.98 417.19 256.68 404.68 C 260.38 392.17 260.73 379.78 256.30 367.70 C 251.88 355.61 235.79 356.94 225.00 357.00
C 225.00 376.33 225.00 395.67 225.00 415.00
M 229.00 411.00 
C 229.00 394.33 229.00 377.67 229.00 361.00
C 264.27 350.65 264.61 421.94 229.00 411.00 Z"/>
</g>
<g fill="None" fill-opacity="0.0" stroke="#000000" stroke-opacity="0.97" stroke-width="0.3"><path d="
M 273.00 357.00 
C 264.28 357.58 268.44 371.04 268.00 379.00 C 267.56 386.96 267.49 397.44 268.22 405.78 C 268.96 414.11 277.84 415.99 285.00 416.00 C 292.16 416.01 299.65 412.00 300.02 404.02 C 300.40 396.05 302.13 385.87 301.00 378.00 C 299.87 370.13 305.13 357.44 296.00 357.00
C 295.66 371.50 296.46 387.63 295.98 401.98 C 295.49 416.32 271.73 415.38 273.00 401.00 C 274.27 386.62 272.05 371.45 273.00 357.00 Z"/>
</g>
<g fill="None" fill-opacity="0.0" stroke="#000000" stroke-opacity="1.00" stroke-width="0.3"><path d="
M 383.00 357.00 
C 377.03 357.49 368.74 356.35 363.00 357.00 C 357.26 357.65 348.03 354.05 348.00 361.00
C 353.00 361.00 358.00 361.00 363.00 361.00
C 363.80 370.03 361.93 382.30 363.00 391.00 C 364.07 399.70 358.74 413.80 368.00 415.00
C 368.00 397.00 368.00 379.00 368.00 361.00
C 372.66 359.60 383.76 364.50 383.00 357.00 Z"/>
</g>
<g fill="None" fill-opacity="0.0" stroke="#000000" stroke-opacity="0.03" stroke-width="0.3"><path d="
M 199.00 360.00 
C 186.66 357.94 181.95 374.50 183.00 384.00 C 184.05 393.50 181.24 408.89 194.00 412.00 C 206.76 415.11 211.23 397.46 210.00 388.00 C 208.77 378.54 211.52 362.09 199.00 360.00 Z"/>
</g>
<g fill="None" fill-opacity="0.0" stroke="#000000" stroke-opacity="0.04" stroke-width="0.3"><path d="
M 229.00 411.00 
C 264.61 421.94 264.27 350.65 229.00 361.00
C 229.00 377.67 229.00 394.33 229.00 411.00 Z"/>
</g>
<g fill="None" fill-opacity="0.0" stroke="#000000" stroke-opacity="0.00" stroke-width="0.3"><path d="
M 104.00 385.00 
C 114.15 386.50 124.42 384.80 124.00 373.00 C 123.58 361.21 113.82 361.19 104.00 362.00
C 104.00 369.67 104.00 377.33 104.00 385.00 Z"/>
</g>
<g fill="None" fill-opacity="0.0" stroke="#000000" stroke-opacity="0.00" stroke-width="0.3"><path d="
M 143.00 384.00 
C 152.48 384.62 163.97 384.94 164.00 373.00 C 164.03 361.06 152.61 361.07 143.00 362.00
C 143.00 369.33 143.00 376.67 143.00 384.00 Z"/>
</g>
<g fill="None" fill-opacity="0.0" stroke="#000000" stroke-opacity="0.80" stroke-width="0.3"><path d="
M 243.00 512.00 
L 254.00 512.00
C 251.46 510.28 245.61 510.44 243.00 512.00 Z"/>
</g>
<g fill="#000000" fill-opacity="0.00" stroke="None">
<path d="
M 0.00 237.00 
C 6.56 115.29 115.37 6.56 237.00 0.00
L 0.00 0.00
L 0.00 237.00 Z"/>
</g>
<g fill="#000000" fill-opacity="0.97" stroke="None">
<path d="
M 0.00 237.00 
L 0.00 243.00
C 1.56 245.61 1.72 251.46 0.00 254.00
L 0.00 272.00
C 4.67 395.03 114.45 505.38 237.00 512.00
L 243.00 512.00
C 245.61 510.44 251.46 510.28 254.00 512.00
L 272.00 512.00
C 395.95 507.27 507.27 395.87 512.00 272.00
L 512.00 254.00
C 510.44 251.39 510.28 245.54 512.00 243.00
L 512.00 237.00
C 505.36 114.37 394.95 4.68 272.00 0.00
L 254.00 0.00
C 251.39 1.56 245.54 1.72 243.00 0.00
L 237.00 0.00
C 115.37 6.56 6.56 115.29 0.00 237.00
M 490.00 197.00 
C 334.00 197.00 178.00 197.00 22.00 197.00
C 46.57 91.65 148.54 14.03 256.02 14.02 C 363.50 14.02 465.44 91.69 490.00 197.00
M 121.00 210.00 
C 130.74 236.04 143.41 261.17 154.00 287.00
C 156.33 262.24 154.33 235.52 155.00 210.00
C 166.89 208.99 161.06 224.66 162.00 234.00 C 162.94 243.34 161.52 255.06 162.00 265.00 C 162.48 274.94 161.64 286.88 162.00 297.00
C 158.33 297.00 154.67 297.00 151.00 297.00
C 141.84 271.22 128.22 246.79 119.00 221.00
C 114.86 230.85 117.65 245.58 117.00 258.00 C 116.35 270.42 117.49 284.43 117.00 297.00
C 105.11 298.01 110.94 282.34 110.00 273.00 C 109.06 263.66 110.48 251.94 110.00 242.00 C 109.52 232.06 110.36 220.12 110.00 210.00
C 113.67 210.00 117.33 210.00 121.00 210.00
M 407.00 210.00 
C 407.00 239.00 407.00 268.00 407.00 297.00
C 395.32 297.90 400.40 280.46 400.00 271.00 C 399.60 261.54 399.40 246.49 400.00 237.00 C 400.60 227.51 395.07 209.17 407.00 210.00
M 239.00 215.00 
C 239.00 221.00 239.00 227.00 239.00 233.00
C 242.67 233.00 246.33 233.00 250.00 233.00
C 252.10 240.39 243.29 237.46 239.00 238.00
C 239.13 248.01 238.83 260.21 239.00 270.00 C 239.17 279.79 235.45 295.15 250.00 292.00
C 245.25 306.07 228.24 293.46 232.00 280.00 C 235.76 266.54 229.18 251.59 232.00 238.00
C 229.00 238.00 226.00 238.00 223.00 238.00
C 220.96 231.51 227.95 233.06 232.00 233.00
C 233.38 226.42 227.56 212.11 239.00 215.00
M 219.00 292.00 
C 221.19 303.13 202.18 297.23 207.00 288.00
C 202.38 295.41 197.54 298.14 188.78 298.22 C 180.01 298.29 173.49 292.02 173.01 282.99 C 172.52 273.97 176.81 267.12 184.23 263.23 C 191.65 259.34 202.13 263.01 205.92 253.92 C 209.70 244.83 202.32 235.18 192.00 237.00 C 181.68 238.82 185.28 252.18 175.00 251.00
C 175.62 237.89 182.02 231.36 196.00 231.00 C 209.98 230.64 213.51 244.20 213.00 256.00 C 212.49 267.80 208.94 287.56 219.00 292.00
M 339.00 231.00 
C 341.06 241.45 328.44 236.31 324.08 244.08 C 319.72 251.85 319.54 258.63 320.00 268.00 C 320.46 277.37 319.65 287.56 320.00 297.00
C 309.72 299.25 313.37 288.32 313.00 281.00 C 312.63 273.68 313.19 264.64 313.00 257.00 C 312.81 249.36 313.14 240.73 313.00 233.00
C 321.09 230.31 319.43 237.50 321.00 242.00
C 324.41 234.99 331.20 230.54 339.00 231.00
M 390.00 292.00 
C 391.77 303.15 374.78 296.93 377.00 289.00
C 372.74 297.20 366.80 298.37 357.98 298.02 C 349.15 297.67 343.92 289.78 344.00 281.00 C 344.08 272.22 348.79 266.51 356.08 263.08 C 363.36 259.64 374.18 262.30 376.97 252.97 C 379.76 243.64 373.42 235.57 363.00 237.00 C 352.58 238.43 356.36 252.49 346.00 251.00
C 346.61 237.89 353.02 231.36 367.00 231.00 C 380.98 230.64 384.51 244.20 384.00 256.00 C 383.49 267.80 379.94 287.55 390.00 292.00
M 265.00 233.00 
C 264.06 249.33 265.82 264.97 265.98 281.02 C 266.13 297.08 288.78 296.20 290.98 280.98 C 293.17 265.75 291.46 248.72 292.00 233.00
C 301.57 231.51 297.42 243.00 298.00 250.00 C 298.58 257.00 297.71 265.56 298.00 273.00 C 298.29 280.44 297.78 289.42 298.00 297.00
C 290.63 299.40 294.48 290.96 292.00 288.00
C 288.66 295.78 282.01 297.71 274.00 298.00 C 265.99 298.29 258.16 292.78 259.00 284.00 C 259.84 275.21 257.84 264.37 259.00 256.00 C 260.16 247.63 254.31 232.56 265.00 233.00
M 491.00 311.00 
C 468.17 418.11 364.93 498.03 255.98 497.98 C 147.02 497.92 43.81 418.17 21.00 311.00
C 177.67 311.00 334.33 311.00 491.00 311.00 Z"/>
</g>
<g fill="#000000" fill-opacity="0.80" stroke="None">
<path d="
M 254.00 0.00 
L 243.00 0.00
C 245.54 1.72 251.39 1.56 254.00 0.00 Z"/>
</g>
<g fill="#000000" fill-opacity="0.00" stroke="None">
<path d="
M 512.00 237.00 
L 512.00 0.00
L 272.00 0.00
C 394.95 4.68 505.36 114.37 512.00 237.00 Z"/>
</g>
<g fill="#000000" fill-opacity="0.00" stroke="None">
<path d="
M 490.00 197.00 
C 465.44 91.69 363.50 14.02 256.02 14.02 C 148.54 14.03 46.57 91.65 22.00 197.00
C 178.00 197.00 334.00 197.00 490.00 197.00
M 177.00 86.00 
C 177.00 113.00 177.00 140.00 177.00 167.00
C 164.61 167.38 171.25 150.14 170.00 140.00 C 168.75 129.86 170.94 115.52 170.00 105.00
C 164.00 105.00 158.00 105.00 152.00 105.00
C 151.02 97.63 160.80 100.30 165.69 96.69 C 170.59 93.09 170.50 85.23 177.00 86.00
M 219.00 86.00 
C 239.44 89.66 235.19 115.66 237.00 131.00 C 238.81 146.34 230.73 173.63 210.00 168.00 C 189.27 162.37 194.12 139.81 192.93 123.93 C 191.74 108.04 196.92 82.04 219.00 86.00
M 274.00 86.00 
C 294.02 88.50 291.16 115.51 292.22 130.22 C 293.29 144.93 286.92 173.11 266.00 168.00 C 245.08 162.89 248.52 139.56 247.00 123.00 C 245.48 106.44 253.82 83.48 274.00 86.00
M 322.00 86.00 
C 340.34 89.80 334.59 133.27 314.78 127.22 C 294.96 121.17 301.40 81.73 322.00 86.00
M 359.00 86.00 
C 355.00 95.28 351.59 105.03 347.08 114.08 C 342.56 123.12 339.77 134.28 335.02 143.02 C 330.28 151.77 329.24 166.22 319.00 168.00
C 323.18 158.80 326.59 149.00 330.92 139.92 C 335.26 130.84 338.62 120.07 343.31 111.31 C 347.99 102.54 348.61 87.77 359.00 86.00
M 366.00 127.00 
C 375.86 129.99 373.56 144.25 374.00 153.00 C 374.44 161.75 364.94 172.13 354.78 167.22 C 344.61 162.31 346.15 152.47 346.00 142.00 C 345.85 131.53 355.10 123.69 366.00 127.00 Z"/>
</g>
<g fill="#000000" fill-opacity="0.98" stroke="None">
<path d="
M 177.00 86.00 
C 170.50 85.23 170.59 93.09 165.69 96.69 C 160.80 100.30 151.02 97.63 152.00 105.00
C 158.00 105.00 164.00 105.00 170.00 105.00
C 170.94 115.52 168.75 129.86 170.00 140.00 C 171.25 150.14 164.61 167.38 177.00 167.00
C 177.00 140.00 177.00 113.00 177.00 86.00 Z"/>
</g>
<g fill="#000000" fill-opacity="0.98" stroke="None">
<path d="
M 219.00 86.00 
C 196.92 82.04 191.74 108.04 192.93 123.93 C 194.12 139.81 189.27 162.37 210.00 168.00 C 230.73 173.63 238.81 146.34 237.00 131.00 C 235.19 115.66 239.44 89.66 219.00 86.00
M 217.00 91.00 
C 233.57 93.15 228.13 117.76 230.00 129.00 C 231.87 140.24 228.40 166.93 212.00 163.00 C 195.60 159.07 200.45 136.64 199.00 125.00 C 197.55 113.36 200.65 88.88 217.00 91.00 Z"/>
</g>
<g fill="#000000" fill-opacity="0.98" stroke="None">
<path d="
M 274.00 86.00 
C 253.82 83.48 245.48 106.44 247.00 123.00 C 248.52 139.56 245.08 162.89 266.00 168.00 C 286.92 173.11 293.29 144.93 292.22 130.22 C 291.16 115.51 294.02 88.50 274.00 86.00
M 272.00 91.00 
C 286.88 92.25 285.73 117.04 286.00 128.00 C 286.27 138.96 285.82 164.61 269.00 163.00 C 252.18 161.39 255.27 138.32 255.00 126.00 C 254.73 113.68 253.60 89.45 272.00 91.00 Z"/>
</g>
<g fill="#000000" fill-opacity="0.96" stroke="None">
<path d="
M 322.00 86.00 
C 301.40 81.73 294.96 121.17 314.78 127.22 C 334.59 133.27 340.34 89.80 322.00 86.00
M 319.00 91.00 
C 330.34 92.16 328.76 123.95 317.31 122.65 C 305.85 121.34 306.76 89.75 319.00 91.00 Z"/>
</g>
<g fill="#000000" fill-opacity="0.99" stroke="None">
<path d="
M 359.00 86.00 
C 348.61 87.77 347.99 102.54 343.31 111.31 C 338.62 120.07 335.26 130.84 330.92 139.92 C 326.59 149.00 323.18 158.80 319.00 168.00
C 329.24 166.22 330.28 151.77 335.02 143.02 C 339.77 134.28 342.56 123.12 347.08 114.08 C 351.59 105.03 355.00 95.28 359.00 86.00 Z"/>
</g>
<g fill="#000000" fill-opacity="0.02" stroke="None">
<path d="
M 217.00 91.00 
C 200.65 88.88 197.55 113.36 199.00 125.00 C 200.45 136.64 195.60 159.07 212.00 163.00 C 228.40 166.93 231.87 140.24 230.00 129.00 C 228.13 117.76 233.57 93.15 217.00 91.00 Z"/>
</g>
<g fill="#000000" fill-opacity="0.03" stroke="None">
<path d="
M 272.00 91.00 
C 253.60 89.45 254.73 113.68 255.00 126.00 C 255.27 138.32 252.18 161.39 269.00 163.00 C 285.82 164.61 286.27 138.96 286.00 128.00 C 285.73 117.04 286.88 92.25 272.00 91.00 Z"/>
</g>
<g fill="#000000" fill-opacity="0.01" stroke="None">
<path d="
M 319.00 91.00 
C 306.76 89.75 305.85 121.34 317.31 122.65 C 328.76 123.95 330.34 92.16 319.00 91.00 Z"/>
</g>
<g fill="#000000" fill-opacity="0.96" stroke="None">
<path d="
M 366.00 127.00 
C 355.10 123.69 345.85 131.53 346.00 142.00 C 346.15 152.47 344.61 162.31 354.78 167.22 C 364.94 172.13 374.44 161.75 374.00 153.00 C 373.56 144.25 375.86 129.99 366.00 127.00
M 363.00 132.00 
C 368.16 133.93 368.10 145.53 368.00 150.00 C 367.90 154.47 365.69 166.96 357.00 163.00 C 348.31 159.04 349.70 127.02 363.00 132.00 Z"/>
</g>
<g fill="#000000" fill-opacity="0.00" stroke="None">
<path d="
M 363.00 132.00 
C 349.70 127.02 348.31 159.04 357.00 163.00 C 365.69 166.96 367.90 154.47 368.00 150.00 C 368.10 145.53 368.16 133.93 363.00 132.00 Z"/>
</g>
<g fill="#000000" fill-opacity="0.00" stroke="None">
<path d="
M 121.00 210.00 
C 117.33 210.00 113.67 210.00 110.00 210.00
C 110.36 220.12 109.52 232.06 110.00 242.00 C 110.48 251.94 109.06 263.66 110.00 273.00 C 110.94 282.34 105.11 298.01 117.00 297.00
C 117.49 284.43 116.35 270.42 117.00 258.00 C 117.65 245.58 114.86 230.85 119.00 221.00
C 128.22 246.79 141.84 271.22 151.00 297.00
C 154.67 297.00 158.33 297.00 162.00 297.00
C 161.64 286.88 162.48 274.94 162.00 265.00 C 161.52 255.06 162.94 243.34 162.00 234.00 C 161.06 224.66 166.89 208.99 155.00 210.00
C 154.33 235.52 156.33 262.24 154.00 287.00
C 143.41 261.17 130.74 236.04 121.00 210.00 Z"/>
</g>
<g fill="#000000" fill-opacity="0.00" stroke="None">
<path d="
M 407.00 210.00 
C 395.07 209.17 400.60 227.51 400.00 237.00 C 399.40 246.49 399.60 261.54 400.00 271.00 C 400.40 280.46 395.32 297.90 407.00 297.00
C 407.00 268.00 407.00 239.00 407.00 210.00 Z"/>
</g>
<g fill="#000000" fill-opacity="0.00" stroke="None">
<path d="
M 239.00 215.00 
C 227.56 212.11 233.38 226.42 232.00 233.00
C 227.95 233.06 220.96 231.51 223.00 238.00
C 226.00 238.00 229.00 238.00 232.00 238.00
C 229.18 251.59 235.76 266.54 232.00 280.00 C 228.24 293.46 245.25 306.07 250.00 292.00
C 235.45 295.15 239.17 279.79 239.00 270.00 C 238.83 260.21 239.13 248.01 239.00 238.00
C 243.29 237.46 252.10 240.39 250.00 233.00
C 246.33 233.00 242.67 233.00 239.00 233.00
C 239.00 227.00 239.00 221.00 239.00 215.00 Z"/>
</g>
<g fill="#000000" fill-opacity="0.02" stroke="None">
<path d="
M 219.00 292.00 
C 208.94 287.56 212.49 267.80 213.00 256.00 C 213.51 244.20 209.98 230.64 196.00 231.00 C 182.02 231.36 175.62 237.89 175.00 251.00
C 185.28 252.18 181.68 238.82 192.00 237.00 C 202.32 235.18 209.70 244.83 205.92 253.92 C 202.13 263.01 191.65 259.34 184.23 263.23 C 176.81 267.12 172.52 273.97 173.01 282.99 C 173.49 292.02 180.01 298.29 188.78 298.22 C 197.54 298.14 202.38 295.41 207.00 288.00
C 202.18 297.23 221.19 303.13 219.00 292.00
M 206.00 261.00 
C 211.92 272.90 198.64 303.91 183.75 289.25 C 168.87 274.59 197.12 263.93 206.00 261.00 Z"/>
</g>
<g fill="#000000" fill-opacity="0.00" stroke="None">
<path d="
M 339.00 231.00 
C 331.20 230.54 324.41 234.99 321.00 242.00
C 319.43 237.50 321.09 230.31 313.00 233.00
C 313.14 240.73 312.81 249.36 313.00 257.00 C 313.19 264.64 312.63 273.68 313.00 281.00 C 313.37 288.32 309.72 299.25 320.00 297.00
C 319.65 287.56 320.46 277.37 320.00 268.00 C 319.54 258.63 319.72 251.85 324.08 244.08 C 328.44 236.31 341.06 241.45 339.00 231.00 Z"/>
</g>
<g fill="#000000" fill-opacity="0.02" stroke="None">
<path d="
M 390.00 292.00 
C 379.94 287.55 383.49 267.80 384.00 256.00 C 384.51 244.20 380.98 230.64 367.00 231.00 C 353.02 231.36 346.61 237.89 346.00 251.00
C 356.36 252.49 352.58 238.43 363.00 237.00 C 373.42 235.57 379.76 243.64 376.97 252.97 C 374.18 262.30 363.36 259.64 356.08 263.08 C 348.79 266.51 344.08 272.22 344.00 281.00 C 343.92 289.78 349.15 297.67 357.98 298.02 C 366.80 298.37 372.74 297.20 377.00 289.00
C 374.78 296.93 391.77 303.15 390.00 292.00
M 377.00 261.00 
C 383.07 272.93 369.60 303.90 354.75 289.25 C 339.91 274.60 368.09 263.92 377.00 261.00 Z"/>
</g>
<g fill="#000000" fill-opacity="0.00" stroke="None">
<path d="
M 265.00 233.00 
C 254.31 232.56 260.16 247.63 259.00 256.00 C 257.84 264.37 259.84 275.21 259.00 284.00 C 258.16 292.78 265.99 298.29 274.00 298.00 C 282.01 297.71 288.66 295.78 292.00 288.00
C 294.48 290.96 290.63 299.40 298.00 297.00
C 297.78 289.42 298.29 280.44 298.00 273.00 C 297.71 265.56 298.58 257.00 298.00 250.00 C 297.42 243.00 301.57 231.51 292.00 233.00
C 291.46 248.72 293.17 265.75 290.98 280.98 C 288.78 296.20 266.13 297.08 265.98 281.02 C 265.82 264.97 264.06 249.33 265.00 233.00 Z"/>
</g>
<g fill="#000000" fill-opacity="0.80" stroke="None">
<path d="
M 0.00 254.00 
C 1.72 251.46 1.56 245.61 0.00 243.00
L 0.00 254.00 Z"/>
</g>
<g fill="#000000" fill-opacity="0.80" stroke="None">
<path d="
M 512.00 254.00 
L 512.00 243.00
C 510.28 245.54 510.44 251.39 512.00 254.00 Z"/>
</g>
<g fill="#000000" fill-opacity="1.00" stroke="None">
<path d="
M 206.00 261.00 
C 197.12 263.93 168.87 274.59 183.75 289.25 C 198.64 303.91 211.92 272.90 206.00 261.00 Z"/>
</g>
<g fill="#000000" fill-opacity="1.00" stroke="None">
<path d="
M 377.00 261.00 
C 368.09 263.92 339.91 274.60 354.75 289.25 C 369.60 303.90 383.07 272.93 377.00 261.00 Z"/>
</g>
<g fill="#000000" fill-opacity="0.00" stroke="None">
<path d="
M 0.00 512.00 
L 237.00 512.00
C 114.45 505.38 4.67 395.03 0.00 272.00
L 0.00 512.00 Z"/>
</g>
<g fill="#000000" fill-opacity="0.00" stroke="None">
<path d="
M 272.00 512.00 
L 512.00 512.00
L 512.00 272.00
C 507.27 395.87 395.95 507.27 272.00 512.00 Z"/>
</g>
<g fill="#000000" fill-opacity="0.01" stroke="None">
<path d="
M 491.00 311.00 
C 334.33 311.00 177.67 311.00 21.00 311.00
C 43.81 418.17 147.02 497.92 255.98 497.98 C 364.93 498.03 468.17 418.11 491.00 311.00
M 199.00 356.00 
C 214.33 357.46 214.11 375.91 215.00 388.00 C 215.89 400.09 209.59 418.84 194.00 416.00 C 178.41 413.16 178.46 396.45 178.00 384.00 C 177.54 371.55 183.73 354.54 199.00 356.00
M 344.00 374.00 
C 336.56 374.61 338.94 360.61 329.78 360.22 C 320.61 359.84 316.31 365.83 315.01 374.01 C 313.70 382.19 313.47 391.74 315.00 400.00 C 316.53 408.27 322.75 413.95 331.67 411.67 C 340.59 409.39 336.21 395.30 345.00 396.00
C 348.15 412.18 323.65 423.87 314.75 410.25 C 305.86 396.63 307.35 378.76 313.31 364.31 C 319.27 349.85 347.50 356.76 344.00 374.00
M 419.00 372.00 
C 412.12 370.26 412.32 360.19 402.77 360.79 C 393.23 361.39 389.78 371.41 394.77 378.23 C 399.76 385.05 407.97 383.09 414.23 387.77 C 420.48 392.46 422.86 400.50 419.07 408.07 C 415.29 415.65 406.36 417.07 398.00 416.00 C 389.64 414.93 386.02 405.45 386.00 398.00
C 393.36 398.58 391.75 411.13 401.00 412.00 C 410.26 412.86 417.85 406.91 416.00 398.00 C 414.15 389.09 406.01 388.62 398.93 386.07 C 391.84 383.52 385.87 376.51 388.00 368.00 C 390.13 359.49 396.55 356.14 404.67 356.33 C 412.79 356.52 420.16 363.16 419.00 372.00
M 103.00 390.00 
C 103.00 398.33 103.00 406.67 103.00 415.00
C 94.72 415.85 98.60 405.26 98.00 399.00 C 97.40 392.74 98.31 384.61 98.00 378.00 C 97.69 371.39 98.24 363.71 98.00 357.00
C 110.25 356.27 127.96 355.59 129.98 371.02 C 131.99 386.46 116.12 392.68 103.00 390.00
M 160.00 387.00 
C 173.51 389.35 166.44 406.08 171.00 415.00
C 160.93 414.72 166.08 403.45 163.67 395.33 C 161.26 387.21 149.56 388.65 142.00 389.00
C 142.00 397.67 142.00 406.33 142.00 415.00
C 135.01 414.60 138.58 405.20 138.00 399.00 C 137.42 392.80 138.30 384.58 138.00 378.00 C 137.70 371.42 138.23 363.69 138.00 357.00
C 147.41 357.51 161.63 354.52 167.75 363.25 C 173.88 371.98 167.94 383.01 160.00 387.00
M 225.00 415.00 
C 225.00 395.67 225.00 376.33 225.00 357.00
C 235.79 356.94 251.88 355.61 256.30 367.70 C 260.73 379.78 260.38 392.17 256.68 404.68 C 252.98 417.19 235.64 415.43 225.00 415.00
M 273.00 357.00 
C 272.05 371.45 274.27 386.62 273.00 401.00 C 271.73 415.38 295.49 416.32 295.98 401.98 C 296.46 387.63 295.66 371.50 296.00 357.00
C 305.13 357.44 299.87 370.13 301.00 378.00 C 302.13 385.87 300.40 396.05 300.02 404.02 C 299.65 412.00 292.16 416.01 285.00 416.00 C 277.84 415.99 268.96 414.11 268.22 405.78 C 267.49 397.44 267.56 386.96 268.00 379.00 C 268.44 371.04 264.28 357.58 273.00 357.00
M 383.00 357.00 
C 383.76 364.50 372.66 359.60 368.00 361.00
C 368.00 379.00 368.00 397.00 368.00 415.00
C 358.74 413.80 364.07 399.70 363.00 391.00 C 361.93 382.30 363.80 370.03 363.00 361.00
C 358.00 361.00 353.00 361.00 348.00 361.00
C 348.03 354.05 357.26 357.65 363.00 357.00 C 368.74 356.35 377.03 357.49 383.00 357.00 Z"/>
</g>
<g fill="#000000" fill-opacity="0.98" stroke="None">
<path d="
M 199.00 356.00 
C 183.73 354.54 177.54 371.55 178.00 384.00 C 178.46 396.45 178.41 413.16 194.00 416.00 C 209.59 418.84 215.89 400.09 215.00 388.00 C 214.11 375.91 214.33 357.46 199.00 356.00
M 199.00 360.00 
C 211.52 362.09 208.77 378.54 210.00 388.00 C 211.23 397.46 206.76 415.11 194.00 412.00 C 181.24 408.89 184.05 393.50 183.00 384.00 C 181.95 374.50 186.66 357.94 199.00 360.00 Z"/>
</g>
<g fill="#000000" fill-opacity="0.99" stroke="None">
<path d="
M 344.00 374.00 
C 347.50 356.76 319.27 349.85 313.31 364.31 C 307.35 378.76 305.86 396.63 314.75 410.25 C 323.65 423.87 348.15 412.18 345.00 396.00
C 336.21 395.30 340.59 409.39 331.67 411.67 C 322.75 413.95 316.53 408.27 315.00 400.00 C 313.47 391.74 313.70 382.19 315.01 374.01 C 316.31 365.83 320.61 359.84 329.78 360.22 C 338.94 360.61 336.56 374.61 344.00 374.00 Z"/>
</g>
<g fill="#000000" fill-opacity="0.98" stroke="None">
<path d="
M 419.00 372.00 
C 420.16 363.16 412.79 356.52 404.67 356.33 C 396.55 356.14 390.13 359.49 388.00 368.00 C 385.87 376.51 391.84 383.52 398.93 386.07 C 406.01 388.62 414.15 389.09 416.00 398.00 C 417.85 406.91 410.26 412.86 401.00 412.00 C 391.75 411.13 393.36 398.58 386.00 398.00
C 386.02 405.45 389.64 414.93 398.00 416.00 C 406.36 417.07 415.29 415.65 419.07 408.07 C 422.86 400.50 420.48 392.46 414.23 387.77 C 407.97 383.09 399.76 385.05 394.77 378.23 C 389.78 371.41 393.23 361.39 402.77 360.79 C 412.32 360.19 412.12 370.26 419.00 372.00 Z"/>
</g>
<g fill="#000000" fill-opacity="0.93" stroke="None">
<path d="
M 103.00 390.00 
C 116.12 392.68 131.99 386.46 129.98 371.02 C 127.96 355.59 110.25 356.27 98.00 357.00
C 98.24 363.71 97.69 371.39 98.00 378.00 C 98.31 384.61 97.40 392.74 98.00 399.00 C 98.60 405.26 94.72 415.85 103.00 415.00
C 103.00 406.67 103.00 398.33 103.00 390.00
M 104.00 385.00 
C 104.00 377.33 104.00 369.67 104.00 362.00
C 113.82 361.19 123.58 361.21 124.00 373.00 C 124.42 384.80 114.15 386.50 104.00 385.00 Z"/>
</g>
<g fill="#000000" fill-opacity="0.95" stroke="None">
<path d="
M 160.00 387.00 
C 167.94 383.01 173.88 371.98 167.75 363.25 C 161.63 354.52 147.41 357.51 138.00 357.00
C 138.23 363.69 137.70 371.42 138.00 378.00 C 138.30 384.58 137.42 392.80 138.00 399.00 C 138.58 405.20 135.01 414.60 142.00 415.00
C 142.00 406.33 142.00 397.67 142.00 389.00
C 149.56 388.65 161.26 387.21 163.67 395.33 C 166.08 403.45 160.93 414.72 171.00 415.00
C 166.44 406.08 173.51 389.35 160.00 387.00
M 143.00 384.00 
C 143.00 376.67 143.00 369.33 143.00 362.00
C 152.61 361.07 164.03 361.06 164.00 373.00 C 163.97 384.94 152.48 384.62 143.00 384.00 Z"/>
</g>
<g fill="#000000" fill-opacity="0.99" stroke="None">
<path d="
M 225.00 415.00 
C 235.64 415.43 252.98 417.19 256.68 404.68 C 260.38 392.17 260.73 379.78 256.30 367.70 C 251.88 355.61 235.79 356.94 225.00 357.00
C 225.00 376.33 225.00 395.67 225.00 415.00
M 229.00 411.00 
C 229.00 394.33 229.00 377.67 229.00 361.00
C 264.27 350.65 264.61 421.94 229.00 411.00 Z"/>
</g>
<g fill="#000000" fill-opacity="0.97" stroke="None">
<path d="
M 273.00 357.00 
C 264.28 357.58 268.44 371.04 268.00 379.00 C 267.56 386.96 267.49 397.44 268.22 405.78 C 268.96 414.11 277.84 415.99 285.00 416.00 C 292.16 416.01 299.65 412.00 300.02 404.02 C 300.40 396.05 302.13 385.87 301.00 378.00 C 299.87 370.13 305.13 357.44 296.00 357.00
C 295.66 371.50 296.46 387.63 295.98 401.98 C 295.49 416.32 271.73 415.38 273.00 401.00 C 274.27 386.62 272.05 371.45 273.00 357.00 Z"/>
</g>
<g fill="#000000" fill-opacity="1.00" stroke="None">
<path d="
M 383.00 357.00 
C 377.03 357.49 368.74 356.35 363.00 357.00 C 357.26 357.65 348.03 354.05 348.00 361.00
C 353.00 361.00 358.00 361.00 363.00 361.00
C 363.80 370.03 361.93 382.30 363.00 391.00 C 364.07 399.70 358.74 413.80 368.00 415.00
C 368.00 397.00 368.00 379.00 368.00 361.00
C 372.66 359.60 383.76 364.50 383.00 357.00 Z"/>
</g>
<g fill="#000000" fill-opacity="0.03" stroke="None">
<path d="
M 199.00 360.00 
C 186.66 357.94 181.95 374.50 183.00 384.00 C 184.05 393.50 181.24 408.89 194.00 412.00 C 206.76 415.11 211.23 397.46 210.00 388.00 C 208.77 378.54 211.52 362.09 199.00 360.00 Z"/>
</g>
<g fill="#000000" fill-opacity="0.04" stroke="None">
<path d="
M 229.00 411.00 
C 264.61 421.94 264.27 350.65 229.00 361.00
C 229.00 377.67 229.00 394.33 229.00 411.00 Z"/>
</g>
<g fill="#000000" fill-opacity="0.00" stroke="None">
<path d="
M 104.00 385.00 
C 114.15 386.50 124.42 384.80 124.00 373.00 C 123.58 361.21 113.82 361.19 104.00 362.00
C 104.00 369.67 104.00 377.33 104.00 385.00 Z"/>
</g>
<g fill="#000000" fill-opacity="0.00" stroke="None">
<path d="
M 143.00 384.00 
C 152.48 384.62 163.97 384.94 164.00 373.00 C 164.03 361.06 152.61 361.07 143.00 362.00
C 143.00 369.33 143.00 376.67 143.00 384.00 Z"/>
</g>
<g fill="#000000" fill-opacity="0.80" stroke="None">
<path d="
M 243.00 512.00 
L 254.00 512.00
C 251.46 510.28 245.61 510.44 243.00 512.00 Z"/>
</g>
</svg>