<svg xmlns="http://www.w3.org/2000/svg" xmlns:v="https://svgstorm.com"
viewBox = "0 0 512 512"
>
<g fill="None" fill-opacity="0.0" stroke="#000000" stroke-opacity="0.01" stroke-width="0.3"><path d="
M 0.00 308.00 
C 4.16 268.97 29.32 236.28 47.00 202.00
C 39.98 197.70 32.38 193.92 26.00 189.00
C 62.78 185.81 99.28 181.49 136.00 178.00
C 148.84 212.15 163.72 245.62 176.00 280.00
C 166.46 277.37 159.03 266.85 149.75 264.25 C 140.48 261.64 136.94 279.13 131.23 286.23 C 125.52 293.32 120.46 304.79 115.08 313.08 C 109.69 321.36 104.07 330.84 98.70 339.70 C 93.32 348.55 88.28 357.20 82.25 366.25 C 76.21 375.29 72.62 385.33 69.02 396.02 C 65.43 406.72 63.54 422.18 66.00 434.00
C 54.34 415.16 42.15 396.38 31.25 376.75 C 20.35 357.13 5.47 337.38 0.00 316.00
L 0.00 512.00
L 512.00 512.00
L 512.00 0.00
L 0.00 0.00
L 0.00 308.00
M 437.00 96.00 
C 422.69 129.56 406.38 162.45 392.00 196.00
C 379.87 194.40 367.95 192.12 355.93 190.07 C 343.90 188.03 330.86 187.49 319.00 185.00 C 307.13 182.51 292.80 182.32 283.00 178.00
C 293.89 173.97 303.49 167.00 314.00 162.00
C 299.37 133.91 282.65 104.74 268.08 76.92 C 253.51 49.09 238.45 17.10 206.00 7.00
C 218.74 5.27 233.51 5.87 247.00 6.00 C 260.49 6.13 276.81 5.40 290.00 6.00 C 303.19 6.60 320.86 4.53 333.00 6.00 C 345.14 7.47 350.61 16.28 359.25 22.75 C 367.89 29.22 372.42 36.56 378.77 45.23 C 385.12 53.90 389.48 62.30 394.92 72.08 C 400.37 81.85 406.00 87.90 410.92 99.08 C 415.85 110.25 428.23 100.29 437.00 96.00
M 193.00 163.00 
C 160.17 143.21 127.55 123.24 95.00 103.00
C 102.53 90.10 110.50 77.86 117.92 64.92 C 125.34 51.99 133.03 39.79 145.23 30.23 C 157.43 20.67 178.43 14.56 193.02 19.98 C 207.62 25.39 219.35 33.78 227.75 46.25 C 236.16 58.71 248.35 73.22 240.25 86.25 C 232.14 99.28 224.84 111.86 216.70 124.70 C 208.56 137.53 201.32 150.30 193.00 163.00
M 469.00 200.00 
C 482.78 233.00 514.52 257.97 509.00 298.00 C 503.48 338.03 452.69 350.12 418.00 344.00
C 402.94 314.50 384.43 286.31 369.00 257.00
C 402.67 238.96 435.26 217.92 469.00 200.00
M 319.00 365.00 
C 352.48 365.47 392.14 364.37 425.00 365.00 C 457.86 365.63 485.54 365.19 509.00 342.00
C 496.37 366.17 484.39 388.95 471.08 413.08 C 457.76 437.20 450.03 463.84 419.78 471.78 C 389.53 479.72 351.64 480.43 319.00 481.00
C 318.34 488.83 320.33 497.99 318.00 505.00
C 295.88 476.07 274.27 446.49 252.00 418.00
C 273.34 388.22 296.12 359.42 318.00 330.00
C 320.32 340.76 318.34 353.49 319.00 365.00
M 212.00 364.00 
C 210.91 402.22 209.98 440.49 210.00 479.00
C 195.67 480.17 179.96 477.44 166.00 478.00 C 152.04 478.56 136.65 478.09 124.78 473.22 C 112.90 468.36 105.72 464.47 97.25 454.75 C 88.77 445.03 86.28 431.77 87.00 419.00 C 87.72 406.23 91.66 394.80 97.92 383.92 C 104.19 373.05 107.54 361.33 122.00 362.00 C 136.46 362.67 152.34 362.24 167.00 363.00 C 181.66 363.76 197.46 362.47 212.00 364.00 Z"/>
</g>
<g fill="None" fill-opacity="0.0" stroke="#000000" stroke-opacity="1.00" stroke-width="0.3"><path d="
M 437.00 96.00 
C 428.23 100.29 415.85 110.25 410.92 99.08 C 406.00 87.90 400.37 81.85 394.92 72.08 C 389.48 62.30 385.12 53.90 378.77 45.23 C 372.42 36.56 367.89 29.22 359.25 22.75 C 350.61 16.28 345.14 7.47 333.00 6.00 C 320.86 4.53 303.19 6.60 290.00 6.00 C 276.81 5.40 260.49 6.13 247.00 6.00 C 233.51 5.87 218.74 5.27 206.00 7.00
C 238.45 17.10 253.51 49.09 268.08 76.92 C 282.65 104.74 299.37 133.91 314.00 162.00
C 303.49 167.00 293.89 173.97 283.00 178.00
C 292.80 182.32 307.13 182.51 319.00 185.00 C 330.86 187.49 343.90 188.03 355.93 190.07 C 367.95 192.12 379.87 194.40 392.00 196.00
C 406.38 162.45 422.69 129.56 437.00 96.00 Z"/>
</g>
<g fill="None" fill-opacity="0.0" stroke="#000000" stroke-opacity="1.00" stroke-width="0.3"><path d="
M 193.00 163.00 
C 201.32 150.30 208.56 137.53 216.70 124.70 C 224.84 111.86 232.14 99.28 240.25 86.25 C 248.35 73.22 236.16 58.71 227.75 46.25 C 219.35 33.78 207.62 25.39 193.02 19.98 C 178.43 14.56 157.43 20.67 145.23 30.23 C 133.03 39.79 125.34 51.99 117.92 64.92 C 110.50 77.86 102.53 90.10 95.00 103.00
C 127.55 123.24 160.17 143.21 193.00 163.00 Z"/>
</g>
<g fill="None" fill-opacity="0.0" stroke="#000000" stroke-opacity="1.00" stroke-width="0.3"><path d="
M 0.00 308.00 
L 0.00 316.00
C 5.47 337.38 20.35 357.13 31.25 376.75 C 42.15 396.38 54.34 415.16 66.00 434.00
C 63.54 422.18 65.43 406.72 69.02 396.02 C 72.62 385.33 76.21 375.29 82.25 366.25 C 88.28 357.20 93.32 348.55 98.70 339.70 C 104.07 330.84 109.69 321.36 115.08 313.08 C 120.46 304.79 125.52 293.32 131.23 286.23 C 136.94 279.13 140.48 261.64 149.75 264.25 C 159.03 266.85 166.46 277.37 176.00 280.00
C 163.72 245.62 148.84 212.15 136.00 178.00
C 99.28 181.49 62.78 185.81 26.00 189.00
C 32.38 193.92 39.98 197.70 47.00 202.00
C 29.32 236.28 4.16 268.97 0.00 308.00 Z"/>
</g>
<g fill="None" fill-opacity="0.0" stroke="#000000" stroke-opacity="1.00" stroke-width="0.3"><path d="
M 469.00 200.00 
C 435.26 217.92 402.67 238.96 369.00 257.00
C 384.43 286.31 402.94 314.50 418.00 344.00
C 452.69 350.12 503.48 338.03 509.00 298.00 C 514.52 257.97 482.78 233.00 469.00 200.00 Z"/>
</g>
<g fill="None" fill-opacity="0.0" stroke="#000000" stroke-opacity="1.00" stroke-width="0.3"><path d="
M 319.00 365.00 
C 318.34 353.49 320.32 340.76 318.00 330.00
C 296.12 359.42 273.34 388.22 252.00 418.00
C 274.27 446.49 295.88 476.07 318.00 505.00
C 320.33 497.99 318.34 488.83 319.00 481.00
C 351.64 480.43 389.53 479.72 419.78 471.78 C 450.03 463.84 457.76 437.20 471.08 413.08 C 484.39 388.95 496.37 366.17 509.00 342.00
C 485.54 365.19 457.86 365.63 425.00 365.00 C 392.14 364.37 352.48 365.47 319.00 365.00 Z"/>
</g>
<g fill="None" fill-opacity="0.0" stroke="#000000" stroke-opacity="1.00" stroke-width="0.3"><path d="
M 212.00 364.00 
C 197.46 362.47 181.66 363.76 167.00 363.00 C 152.34 362.24 136.46 362.67 122.00 362.00 C 107.54 361.33 104.19 373.05 97.92 383.92 C 91.66 394.80 87.72 406.23 87.00 419.00 C 86.28 431.77 88.77 445.03 97.25 454.75 C 105.72 464.47 112.90 468.36 124.78 473.22 C 136.65 478.09 152.04 478.56 166.00 478.00 C 179.96 477.44 195.67 480.17 210.00 479.00
C 209.98 440.49 210.91 402.22 212.00 364.00 Z"/>
</g>
<g fill="#000000" fill-opacity="0.01" stroke="None">
<path d="
M 0.00 308.00 
C 4.16 268.97 29.32 236.28 47.00 202.00
C 39.98 197.70 32.38 193.92 26.00 189.00
C 62.78 185.81 99.28 181.49 136.00 178.00
C 148.84 212.15 163.72 245.62 176.00 280.00
C 166.46 277.37 159.03 266.85 149.75 264.25 C 140.48 261.64 136.94 279.13 131.23 286.23 C 125.52 293.32 120.46 304.79 115.08 313.08 C 109.69 321.36 104.07 330.84 98.70 339.70 C 93.32 348.55 88.28 357.20 82.25 366.25 C 76.21 375.29 72.62 385.33 69.02 396.02 C 65.43 406.72 63.54 422.18 66.00 434.00
C 54.34 415.16 42.15 396.38 31.25 376.75 C 20.35 357.13 5.47 337.38 0.00 316.00
L 0.00 512.00
L 512.00 512.00
L 512.00 0.00
L 0.00 0.00
L 0.00 308.00
M 437.00 96.00 
C 422.69 129.56 406.38 162.45 392.00 196.00
C 379.87 194.40 367.95 192.12 355.93 190.07 C 343.90 188.03 330.86 187.49 319.00 185.00 C 307.13 182.51 292.80 182.32 283.00 178.00
C 293.89 173.97 303.49 167.00 314.00 162.00
C 299.37 133.91 282.65 104.74 268.08 76.92 C 253.51 49.09 238.45 17.10 206.00 7.00
C 218.74 5.27 233.51 5.87 247.00 6.00 C 260.49 6.13 276.81 5.40 290.00 6.00 C 303.19 6.60 320.86 4.53 333.00 6.00 C 345.14 7.47 350.61 16.28 359.25 22.75 C 367.89 29.22 372.42 36.56 378.77 45.23 C 385.12 53.90 389.48 62.30 394.92 72.08 C 400.37 81.85 406.00 87.90 410.92 99.08 C 415.85 110.25 428.23 100.29 437.00 96.00
M 193.00 163.00 
C 160.17 143.21 127.55 123.24 95.00 103.00
C 102.53 90.10 110.50 77.86 117.92 64.92 C 125.34 51.99 133.03 39.79 145.23 30.23 C 157.43 20.67 178.43 14.56 193.02 19.98 C 207.62 25.39 219.35 33.78 227.75 46.25 C 236.16 58.71 248.35 73.22 240.25 86.25 C 232.14 99.28 224.84 111.86 216.70 124.70 C 208.56 137.53 201.32 150.30 193.00 163.00
M 469.00 200.00 
C 482.78 233.00 514.52 257.97 509.00 298.00 C 503.48 338.03 452.69 350.12 418.00 344.00
C 402.94 314.50 384.43 286.31 369.00 257.00
C 402.67 238.96 435.26 217.92 469.00 200.00
M 319.00 365.00 
C 352.48 365.47 392.14 364.37 425.00 365.00 C 457.86 365.63 485.54 365.19 509.00 342.00
C 496.37 366.17 484.39 388.95 471.08 413.08 C 457.76 437.20 450.03 463.84 419.78 471.78 C 389.53 479.72 351.64 480.43 319.00 481.00
C 318.34 488.83 320.33 497.99 318.00 505.00
C 295.88 476.07 274.27 446.49 252.00 418.00
C 273.34 388.22 296.12 359.42 318.00 330.00
C 320.32 340.76 318.34 353.49 319.00 365.00
M 212.00 364.00 
C 210.91 402.22 209.98 440.49 210.00 479.00
C 195.67 480.17 179.96 477.44 166.00 478.00 C 152.04 478.56 136.65 478.09 124.78 473.22 C 112.90 468.36 105.72 464.47 97.25 454.75 C 88.77 445.03 86.28 431.77 87.00 419.00 C 87.72 406.23 91.66 394.80 97.92 383.92 C 104.19 373.05 107.54 361.33 122.00 362.00 C 136.46 362.67 152.34 362.24 167.00 363.00 C 181.66 363.76 197.46 362.47 212.00 364.00 Z"/>
</g>
<g fill="#000000" fill-opacity="1.00" stroke="None">
<path d="
M 437.00 96.00 
C 428.23 100.29 415.85 110.25 410.92 99.08 C 406.00 87.90 400.37 81.85 394.92 72.08 C 389.48 62.30 385.12 53.90 378.77 45.23 C 372.42 36.56 367.89 29.22 359.25 22.75 C 350.61 16.28 345.14 7.47 333.00 6.00 C 320.86 4.53 303.19 6.60 290.00 6.00 C 276.81 5.40 260.49 6.13 247.00 6.00 C 233.51 5.87 218.74 5.27 206.00 7.00
C 238.45 17.10 253.51 49.09 268.08 76.92 C 282.65 104.74 299.37 133.91 314.00 162.00
C 303.49 167.00 293.89 173.97 283.00 178.00
C 292.80 182.32 307.13 182.51 319.00 185.00 C 330.86 187.49 343.90 188.03 355.93 190.07 C 367.95 192.12 379.87 194.40 392.00 196.00
C 406.38 162.45 422.69 129.56 437.00 96.00 Z"/>
</g>
<g fill="#000000" fill-opacity="1.00" stroke="None">
<path d="
M 193.00 163.00 
C 201.32 150.30 208.56 137.53 216.70 124.70 C 224.84 111.86 232.14 99.28 240.25 86.25 C 248.35 73.22 236.16 58.71 227.75 46.25 C 219.35 33.78 207.62 25.39 193.02 19.98 C 178.43 14.56 157.43 20.67 145.23 30.23 C 133.03 39.79 125.34 51.99 117.92 64.92 C 110.50 77.86 102.53 90.10 95.00 103.00
C 127.55 123.24 160.17 143.21 193.00 163.00 Z"/>
</g>
<g fill="#000000" fill-opacity="1.00" stroke="None">
<path d="
M 0.00 308.00 
L 0.00 316.00
C 5.47 337.38 20.35 357.13 31.25 376.75 C 42.15 396.38 54.34 415.16 66.00 434.00
C 63.54 422.18 65.43 406.72 69.02 396.02 C 72.62 385.33 76.21 375.29 82.25 366.25 C 88.28 357.20 93.32 348.55 98.70 339.70 C 104.07 330.84 109.69 321.36 115.08 313.08 C 120.46 304.79 125.52 293.32 131.23 286.23 C 136.94 279.13 140.48 261.64 149.75 264.25 C 159.03 266.85 166.46 277.37 176.00 280.00
C 163.72 245.62 148.84 212.15 136.00 178.00
C 99.28 181.49 62.78 185.81 26.00 189.00
C 32.38 193.92 39.98 197.70 47.00 202.00
C 29.32 236.28 4.16 268.97 0.00 308.00 Z"/>
</g>
<g fill="#000000" fill-opacity="1.00" stroke="None">
<path d="
M 469.00 200.00 
C 435.26 217.92 402.67 238.96 369.00 257.00
C 384.43 286.31 402.94 314.50 418.00 344.00
C 452.69 350.12 503.48 338.03 509.00 298.00 C 514.52 257.97 482.78 233.00 469.00 200.00 Z"/>
</g>
<g fill="#000000" fill-opacity="1.00" stroke="None">
<path d="
M 319.00 365.00 
C 318.34 353.49 320.32 340.76 318.00 330.00
C 296.12 359.42 273.34 388.22 252.00 418.00
C 274.27 446.49 295.88 476.07 318.00 505.00
C 320.33 497.99 318.34 488.83 319.00 481.00
C 351.64 480.43 389.53 479.72 419.78 471.78 C 450.03 463.84 457.76 437.20 471.08 413.08 C 484.39 388.95 496.37 366.17 509.00 342.00
C 485.54 365.19 457.86 365.63 425.00 365.00 C 392.14 364.37 352.48 365.47 319.00 365.00 Z"/>
</g>
<g fill="#000000" fill-opacity="1.00" stroke="None">
<path d="
M 212.00 364.00 
C 197.46 362.47 181.66 363.76 167.00 363.00 C 152.34 362.24 136.46 362.67 122.00 362.00 C 107.54 361.33 104.19 373.05 97.92 383.92 C 91.66 394.80 87.72 406.23 87.00 419.00 C 86.28 431.77 88.77 445.03 97.25 454.75 C 105.72 464.47 112.90 468.36 124.78 473.22 C 136.65 478.09 152.04 478.56 166.00 478.00 C 179.96 477.44 195.67 480.17 210.00 479.00
C 209.98 440.49 210.91 402.22 212.00 364.00 Z"/>
</g>
</svg>