<svg xmlns="http://www.w3.org/2000/svg" xmlns:v="https://svgstorm.com"
viewBox = "0 0 512 512"
>
<g fill="None" fill-opacity="0.0" stroke="#000000" stroke-opacity="0.00" stroke-width="0.3"><path d="
M 0.00 343.00 
C 7.14 330.10 15.36 340.33 17.57 349.77 C 19.79 359.21 23.22 367.00 26.19 376.25 C 29.17 385.49 32.40 392.85 35.19 402.25 C 37.99 411.65 42.21 419.21 45.00 430.00
C 48.72 419.82 51.54 411.41 54.39 401.25 C 57.25 391.09 61.89 384.07 64.26 373.25 C 66.63 362.43 71.57 355.96 73.91 344.90 C 76.24 333.84 91.07 336.99 87.74 348.75 C 84.41 360.50 82.10 366.92 78.43 376.77 C 74.76 386.62 73.09 396.26 69.94 405.08 C 66.79 413.90 62.29 425.45 59.88 432.90 C 57.48 440.35 54.84 459.21 42.75 455.80 C 30.67 452.40 33.95 436.63 29.60 429.25 C 25.25 421.88 22.93 410.37 19.09 401.90 C 15.26 393.43 14.15 383.00 10.60 374.25 C 7.05 365.50 3.18 355.19 0.00 346.00
L 0.00 512.00
L 512.00 512.00
L 512.00 447.00
C 502.06 465.00 490.16 443.76 483.90 434.10 C 477.65 424.44 469.47 411.95 461.91 402.08 C 454.35 392.21 448.42 379.88 440.00 370.00
C 437.07 384.53 440.47 406.24 439.00 421.00 C 437.53 435.76 445.51 456.64 428.00 456.00
C 420.86 442.55 424.19 421.65 424.00 404.00 C 423.81 386.35 423.19 363.50 424.00 346.00 C 424.81 328.50 441.37 340.90 444.75 349.25 C 448.12 357.61 456.51 365.94 461.71 374.30 C 466.91 382.66 473.00 391.19 478.39 399.75 C 483.78 408.31 491.81 415.51 496.00 426.00
C 496.87 413.38 496.97 397.62 496.67 384.33 C 496.37 371.04 496.38 356.14 496.33 343.33 C 496.28 330.52 516.37 337.65 511.00 350.00
C 511.00 349.99 512.00 350.00 512.00 350.00
L 512.00 0.00
L 0.00 0.00
L 0.00 343.00
M 412.00 56.00 
C 419.25 66.74 414.71 82.79 412.61 93.75 C 410.50 104.72 406.40 114.21 401.29 123.30 C 396.17 132.39 390.99 143.20 381.75 152.75 C 372.52 162.30 361.67 170.11 353.08 175.13 C 344.49 180.15 335.43 184.18 324.75 187.76 C 314.07 191.34 302.55 191.74 289.00 192.00
C 281.11 202.31 272.04 207.64 267.76 216.77 C 263.49 225.90 262.44 236.73 264.00 252.00 C 265.56 267.27 261.03 288.09 264.00 304.00 C 266.97 319.91 249.53 325.35 248.02 310.97 C 246.52 296.60 250.17 283.60 244.69 274.30 C 239.21 265.00 230.93 257.70 222.00 248.00
C 211.95 249.02 203.61 247.22 194.25 245.61 C 184.89 243.99 177.75 239.10 170.25 236.74 C 162.75 234.37 156.54 228.93 149.70 224.30 C 142.86 219.67 133.06 210.25 125.90 203.10 C 118.74 195.95 116.61 188.52 111.81 181.75 C 107.01 174.97 105.74 168.03 102.36 160.30 C 98.98 152.57 99.90 146.43 97.80 136.75 C 95.70 127.08 94.48 110.27 107.67 112.33 C 120.86 114.39 126.91 113.20 137.25 116.20 C 147.58 119.19 153.20 121.31 160.92 125.13 C 168.64 128.95 174.35 132.25 181.25 137.19 C 188.16 142.13 197.89 153.29 204.59 159.75 C 211.29 166.21 213.63 174.16 217.39 180.75 C 221.16 187.35 224.69 193.46 226.80 202.25 C 228.91 211.03 231.85 216.45 231.40 226.75 C 230.94 237.06 238.31 248.58 249.00 254.00
C 247.61 234.29 249.00 218.91 256.58 207.23 C 264.15 195.55 278.98 181.68 290.75 169.75 C 302.52 157.83 317.05 144.14 328.25 132.25 C 339.45 120.35 357.08 100.61 360.00 123.00
C 341.09 138.76 323.55 158.28 306.00 176.00
C 332.08 171.95 351.93 161.67 372.30 139.30 C 392.66 116.93 396.52 100.33 401.00 71.00
C 388.35 72.38 378.76 74.17 369.30 77.64 C 359.84 81.10 352.92 84.79 343.75 90.19 C 334.58 95.59 323.85 108.58 316.43 116.77 C 309.00 124.95 309.06 138.05 296.00 139.00
C 286.50 125.18 299.43 117.25 306.30 105.30 C 313.17 93.34 328.73 83.20 338.25 76.81 C 347.78 70.43 358.25 64.94 369.77 61.43 C 381.29 57.91 396.06 56.39 412.00 56.00
M 284.00 351.00 
C 284.01 355.77 280.95 356.43 279.00 361.00
C 267.50 356.96 254.88 350.92 241.31 352.31 C 227.73 353.69 217.88 361.14 209.25 371.25 C 200.63 381.37 202.02 396.41 204.13 408.92 C 206.24 421.43 217.37 430.50 228.25 436.19 C 239.14 441.88 255.60 442.59 265.77 435.42 C 275.94 428.26 283.71 416.73 284.00 403.00
C 275.08 403.44 264.94 401.99 257.00 404.00
C 252.02 398.52 251.22 388.21 261.08 388.94 C 270.95 389.67 286.42 388.61 296.00 389.00
C 303.11 402.13 296.41 417.40 291.29 428.30 C 286.17 439.21 275.18 450.42 262.90 453.91 C 250.62 457.39 231.43 455.10 221.75 450.81 C 212.06 446.52 198.52 433.15 193.29 423.70 C 188.06 414.25 185.75 394.45 188.20 382.75 C 190.65 371.05 198.89 358.64 209.77 349.43 C 220.64 340.22 231.23 337.34 248.00 337.00 C 264.77 336.66 273.69 342.26 284.00 351.00
M 362.00 337.00 
C 369.07 345.62 369.66 353.59 373.19 362.25 C 376.73 370.91 379.80 378.24 383.13 386.92 C 386.46 395.60 388.30 403.37 392.71 411.30 C 397.12 419.23 395.67 428.98 401.19 436.25 C 406.71 443.53 405.41 459.41 394.70 454.29 C 383.98 449.16 389.96 439.21 384.00 430.00
C 366.00 430.00 348.00 430.00 330.00 430.00
C 328.24 436.82 323.81 460.42 313.08 454.87 C 302.36 449.32 314.18 433.76 316.39 425.25 C 318.60 416.73 324.99 404.46 328.26 395.25 C 331.54 386.03 335.57 374.22 339.21 364.77 C 342.86 355.32 346.35 342.42 355.00 336.00
C 357.22 336.93 359.87 338.11 362.00 337.00
M 123.00 352.00 
C 123.00 364.33 123.00 376.67 123.00 389.00
C 130.12 386.81 141.82 388.52 149.00 388.00 C 156.18 387.48 164.03 388.64 164.31 395.70 C 164.59 402.75 161.16 402.51 153.99 403.01 C 146.82 403.50 133.55 400.56 126.00 403.00 C 118.45 405.44 125.79 418.85 123.00 427.00 C 120.21 435.15 125.74 444.43 136.00 441.00 C 146.26 437.57 153.48 444.28 163.00 440.00
C 163.83 443.07 166.34 444.97 168.00 446.00
C 167.72 455.42 157.46 457.60 147.00 456.00 C 136.54 454.40 121.44 459.06 113.23 454.42 C 105.02 449.79 108.67 436.06 108.00 425.00 C 107.33 413.94 108.61 399.94 108.00 388.00 C 107.39 376.06 108.95 362.39 108.00 350.00 C 107.05 337.61 115.41 336.30 126.00 338.00 C 136.59 339.70 153.06 336.50 162.07 337.07 C 171.09 337.65 169.12 353.08 159.92 352.92 C 150.71 352.76 132.52 354.03 123.00 352.00 Z"/>
</g>
<g fill="None" fill-opacity="0.0" stroke="#000000" stroke-opacity="0.96" stroke-width="0.3"><path d="
M 412.00 56.00 
C 396.06 56.39 381.29 57.91 369.77 61.43 C 358.25 64.94 347.78 70.43 338.25 76.81 C 328.73 83.20 313.17 93.34 306.30 105.30 C 299.43 117.25 286.50 125.18 296.00 139.00
C 309.06 138.05 309.00 124.95 316.43 116.77 C 323.85 108.58 334.58 95.59 343.75 90.19 C 352.92 84.79 359.84 81.10 369.30 77.64 C 378.76 74.17 388.35 72.38 401.00 71.00
C 396.52 100.33 392.66 116.93 372.30 139.30 C 351.93 161.67 332.08 171.95 306.00 176.00
C 323.55 158.28 341.09 138.76 360.00 123.00
C 357.08 100.61 339.45 120.35 328.25 132.25 C 317.05 144.14 302.52 157.83 290.75 169.75 C 278.98 181.68 264.15 195.55 256.58 207.23 C 249.00 218.91 247.61 234.29 249.00 254.00
C 238.31 248.58 230.94 237.06 231.40 226.75 C 231.85 216.45 228.91 211.03 226.80 202.25 C 224.69 193.46 221.16 187.35 217.39 180.75 C 213.63 174.16 211.29 166.21 204.59 159.75 C 197.89 153.29 188.16 142.13 181.25 137.19 C 174.35 132.25 168.64 128.95 160.92 125.13 C 153.20 121.31 147.58 119.19 137.25 116.20 C 126.91 113.20 120.86 114.39 107.67 112.33 C 94.48 110.27 95.70 127.08 97.80 136.75 C 99.90 146.43 98.98 152.57 102.36 160.30 C 105.74 168.03 107.01 174.97 111.81 181.75 C 116.61 188.52 118.74 195.95 125.90 203.10 C 133.06 210.25 142.86 219.67 149.70 224.30 C 156.54 228.93 162.75 234.37 170.25 236.74 C 177.75 239.10 184.89 243.99 194.25 245.61 C 203.61 247.22 211.95 249.02 222.00 248.00
C 230.93 257.70 239.21 265.00 244.69 274.30 C 250.17 283.60 246.52 296.60 248.02 310.97 C 249.53 325.35 266.97 319.91 264.00 304.00 C 261.03 288.09 265.56 267.27 264.00 252.00 C 262.44 236.73 263.49 225.90 267.76 216.77 C 272.04 207.64 281.11 202.31 289.00 192.00
C 302.55 191.74 314.07 191.34 324.75 187.76 C 335.43 184.18 344.49 180.15 353.08 175.13 C 361.67 170.11 372.52 162.30 381.75 152.75 C 390.99 143.20 396.17 132.39 401.29 123.30 C 406.40 114.21 410.50 104.72 412.61 93.75 C 414.71 82.79 419.25 66.74 412.00 56.00
M 216.00 222.00 
C 198.23 204.40 178.74 186.90 163.00 168.00
C 152.17 167.42 149.03 177.20 157.75 184.25 C 166.47 191.29 172.97 200.22 181.25 207.75 C 189.53 215.28 197.35 224.00 205.00 232.00
C 185.04 228.29 173.62 223.11 159.08 212.91 C 144.54 202.71 129.58 185.02 123.42 172.23 C 117.27 159.44 112.32 144.81 111.00 127.00
C 141.73 132.17 157.68 136.02 179.30 155.70 C 200.91 175.38 212.49 196.83 216.00 222.00 Z"/>
</g>
<g fill="None" fill-opacity="0.0" stroke="#000000" stroke-opacity="0.03" stroke-width="0.3"><path d="
M 216.00 222.00 
C 212.49 196.83 200.91 175.38 179.30 155.70 C 157.68 136.02 141.73 132.17 111.00 127.00
C 112.32 144.81 117.27 159.44 123.42 172.23 C 129.58 185.02 144.54 202.71 159.08 212.91 C 173.62 223.11 185.04 228.29 205.00 232.00
C 197.35 224.00 189.53 215.28 181.25 207.75 C 172.97 200.22 166.47 191.29 157.75 184.25 C 149.03 177.20 152.17 167.42 163.00 168.00
C 178.74 186.90 198.23 204.40 216.00 222.00 Z"/>
</g>
<g fill="None" fill-opacity="0.0" stroke="#000000" stroke-opacity="0.96" stroke-width="0.3"><path d="
M 0.00 343.00 
L 0.00 346.00
C 3.18 355.19 7.05 365.50 10.60 374.25 C 14.15 383.00 15.26 393.43 19.09 401.90 C 22.93 410.37 25.25 421.88 29.60 429.25 C 33.95 436.63 30.67 452.40 42.75 455.80 C 54.84 459.21 57.48 440.35 59.88 432.90 C 62.29 425.45 66.79 413.90 69.94 405.08 C 73.09 396.26 74.76 386.62 78.43 376.77 C 82.10 366.92 84.41 360.50 87.74 348.75 C 91.07 336.99 76.24 333.84 73.91 344.90 C 71.57 355.96 66.63 362.43 64.26 373.25 C 61.89 384.07 57.25 391.09 54.39 401.25 C 51.54 411.41 48.72 419.82 45.00 430.00
C 42.21 419.21 37.99 411.65 35.19 402.25 C 32.40 392.85 29.17 385.49 26.19 376.25 C 23.22 367.00 19.79 359.21 17.57 349.77 C 15.36 340.33 7.14 330.10 0.00 343.00 Z"/>
</g>
<g fill="None" fill-opacity="0.0" stroke="#000000" stroke-opacity="0.96" stroke-width="0.3"><path d="
M 284.00 351.00 
C 273.69 342.26 264.77 336.66 248.00 337.00 C 231.23 337.34 220.64 340.22 209.77 349.43 C 198.89 358.64 190.65 371.05 188.20 382.75 C 185.75 394.45 188.06 414.25 193.29 423.70 C 198.52 433.15 212.06 446.52 221.75 450.81 C 231.43 455.10 250.62 457.39 262.90 453.91 C 275.18 450.42 286.17 439.21 291.29 428.30 C 296.41 417.40 303.11 402.13 296.00 389.00
C 286.42 388.61 270.95 389.67 261.08 388.94 C 251.22 388.21 252.02 398.52 257.00 404.00
C 264.94 401.99 275.08 403.44 284.00 403.00
C 283.71 416.73 275.94 428.26 265.77 435.42 C 255.60 442.59 239.14 441.88 228.25 436.19 C 217.37 430.50 206.24 421.43 204.13 408.92 C 202.02 396.41 200.63 381.37 209.25 371.25 C 217.88 361.14 227.73 353.69 241.31 352.31 C 254.88 350.92 267.50 356.96 279.00 361.00
C 280.95 356.43 284.01 355.77 284.00 351.00 Z"/>
</g>
<g fill="None" fill-opacity="0.0" stroke="#000000" stroke-opacity="0.97" stroke-width="0.3"><path d="
M 362.00 337.00 
C 359.87 338.11 357.22 336.93 355.00 336.00
C 346.35 342.42 342.86 355.32 339.21 364.77 C 335.57 374.22 331.54 386.03 328.26 395.25 C 324.99 404.46 318.60 416.73 316.39 425.25 C 314.18 433.76 302.36 449.32 313.08 454.87 C 323.81 460.42 328.24 436.82 330.00 430.00
C 348.00 430.00 366.00 430.00 384.00 430.00
C 389.96 439.21 383.98 449.16 394.70 454.29 C 405.41 459.41 406.71 443.53 401.19 436.25 C 395.67 428.98 397.12 419.23 392.71 411.30 C 388.30 403.37 386.46 395.60 383.13 386.92 C 379.80 378.24 376.73 370.91 373.19 362.25 C 369.66 353.59 369.07 345.62 362.00 337.00
M 378.00 416.00 
C 364.00 416.00 350.00 416.00 336.00 416.00
C 343.73 396.97 350.14 379.99 357.00 361.00
C 364.42 379.55 370.39 397.17 378.00 416.00 Z"/>
</g>
<g fill="None" fill-opacity="0.0" stroke="#000000" stroke-opacity="0.98" stroke-width="0.3"><path d="
M 512.00 447.00 
L 512.00 433.00
C 510.18 426.24 511.00 417.51 511.00 410.00
C 511.00 402.33 511.00 394.67 511.00 387.00
C 511.00 381.67 511.00 376.33 511.00 371.00
C 511.00 364.00 511.14 356.99 511.00 350.00
C 516.37 337.65 496.28 330.52 496.33 343.33 C 496.38 356.14 496.37 371.04 496.67 384.33 C 496.97 397.62 496.87 413.38 496.00 426.00
C 491.81 415.51 483.78 408.31 478.39 399.75 C 473.00 391.19 466.91 382.66 461.71 374.30 C 456.51 365.94 448.12 357.61 444.75 349.25 C 441.37 340.90 424.81 328.50 424.00 346.00 C 423.19 363.50 423.81 386.35 424.00 404.00 C 424.19 421.65 420.86 442.55 428.00 456.00
C 445.51 456.64 437.53 435.76 439.00 421.00 C 440.47 406.24 437.07 384.53 440.00 370.00
C 448.42 379.88 454.35 392.21 461.91 402.08 C 469.47 411.95 477.65 424.44 483.90 434.10 C 490.16 443.76 502.06 465.00 512.00 447.00 Z"/>
</g>
<g fill="None" fill-opacity="0.0" stroke="#000000" stroke-opacity="0.94" stroke-width="0.3"><path d="
M 123.00 352.00 
C 132.52 354.03 150.71 352.76 159.92 352.92 C 169.12 353.08 171.09 337.65 162.07 337.07 C 153.06 336.50 136.59 339.70 126.00 338.00 C 115.41 336.30 107.05 337.61 108.00 350.00 C 108.95 362.39 107.39 376.06 108.00 388.00 C 108.61 399.94 107.33 413.94 108.00 425.00 C 108.67 436.06 105.02 449.79 113.23 454.42 C 121.44 459.06 136.54 454.40 147.00 456.00 C 157.46 457.60 167.72 455.42 168.00 446.00
C 166.34 444.97 163.83 443.07 163.00 440.00
C 153.48 444.28 146.26 437.57 136.00 441.00 C 125.74 444.43 120.21 435.15 123.00 427.00 C 125.79 418.85 118.45 405.44 126.00 403.00 C 133.55 400.56 146.82 403.50 153.99 403.01 C 161.16 402.51 164.59 402.75 164.31 395.70 C 164.03 388.64 156.18 387.48 149.00 388.00 C 141.82 388.52 130.12 386.81 123.00 389.00
C 123.00 376.67 123.00 364.33 123.00 352.00 Z"/>
</g>
<g fill="None" fill-opacity="0.0" stroke="#000000" stroke-opacity="0.18" stroke-width="0.3"><path d="
M 511.00 371.00 
C 511.00 370.96 512.00 371.00 512.00 371.00
L 512.00 350.00
C 512.00 350.00 511.00 349.99 511.00 350.00
C 511.14 356.99 511.00 364.00 511.00 371.00 Z"/>
</g>
<g fill="None" fill-opacity="0.0" stroke="#000000" stroke-opacity="0.05" stroke-width="0.3"><path d="
M 378.00 416.00 
C 370.39 397.17 364.42 379.55 357.00 361.00
C 350.14 379.99 343.73 396.97 336.00 416.00
C 350.00 416.00 364.00 416.00 378.00 416.00 Z"/>
</g>
<g fill="None" fill-opacity="0.0" stroke="#000000" stroke-opacity="0.36" stroke-width="0.3"><path d="
M 511.00 387.00 
C 511.00 386.96 512.00 387.00 512.00 387.00
L 512.00 371.00
C 512.00 371.00 511.00 370.96 511.00 371.00
C 511.00 376.33 511.00 381.67 511.00 387.00 Z"/>
</g>
<g fill="None" fill-opacity="0.0" stroke="#000000" stroke-opacity="0.55" stroke-width="0.3"><path d="
M 511.00 410.00 
C 511.00 409.96 512.00 410.00 512.00 410.00
L 512.00 387.00
C 512.00 387.00 511.00 386.96 511.00 387.00
C 511.00 394.67 511.00 402.33 511.00 410.00 Z"/>
</g>
<g fill="None" fill-opacity="0.0" stroke="#000000" stroke-opacity="0.77" stroke-width="0.3"><path d="
M 512.00 433.00 
L 512.00 410.00
C 512.00 410.00 511.00 409.96 511.00 410.00
C 511.00 417.51 510.18 426.24 512.00 433.00 Z"/>
</g>
<g fill="#000000" fill-opacity="0.00" stroke="None">
<path d="
M 0.00 343.00 
C 7.14 330.10 15.36 340.33 17.57 349.77 C 19.79 359.21 23.22 367.00 26.19 376.25 C 29.17 385.49 32.40 392.85 35.19 402.25 C 37.99 411.65 42.21 419.21 45.00 430.00
C 48.72 419.82 51.54 411.41 54.39 401.25 C 57.25 391.09 61.89 384.07 64.26 373.25 C 66.63 362.43 71.57 355.96 73.91 344.90 C 76.24 333.84 91.07 336.99 87.74 348.75 C 84.41 360.50 82.10 366.92 78.43 376.77 C 74.76 386.62 73.09 396.26 69.94 405.08 C 66.79 413.90 62.29 425.45 59.88 432.90 C 57.48 440.35 54.84 459.21 42.75 455.80 C 30.67 452.40 33.95 436.63 29.60 429.25 C 25.25 421.88 22.93 410.37 19.09 401.90 C 15.26 393.43 14.15 383.00 10.60 374.25 C 7.05 365.50 3.18 355.19 0.00 346.00
L 0.00 512.00
L 512.00 512.00
L 512.00 447.00
C 502.06 465.00 490.16 443.76 483.90 434.10 C 477.65 424.44 469.47 411.95 461.91 402.08 C 454.35 392.21 448.42 379.88 440.00 370.00
C 437.07 384.53 440.47 406.24 439.00 421.00 C 437.53 435.76 445.51 456.64 428.00 456.00
C 420.86 442.55 424.19 421.65 424.00 404.00 C 423.81 386.35 423.19 363.50 424.00 346.00 C 424.81 328.50 441.37 340.90 444.75 349.25 C 448.12 357.61 456.51 365.94 461.71 374.30 C 466.91 382.66 473.00 391.19 478.39 399.75 C 483.78 408.31 491.81 415.51 496.00 426.00
C 496.87 413.38 496.97 397.62 496.67 384.33 C 496.37 371.04 496.38 356.14 496.33 343.33 C 496.28 330.52 516.37 337.65 511.00 350.00
C 511.00 349.99 512.00 350.00 512.00 350.00
L 512.00 0.00
L 0.00 0.00
L 0.00 343.00
M 412.00 56.00 
C 419.25 66.74 414.71 82.79 412.61 93.75 C 410.50 104.72 406.40 114.21 401.29 123.30 C 396.17 132.39 390.99 143.20 381.75 152.75 C 372.52 162.30 361.67 170.11 353.08 175.13 C 344.49 180.15 335.43 184.18 324.75 187.76 C 314.07 191.34 302.55 191.74 289.00 192.00
C 281.11 202.31 272.04 207.64 267.76 216.77 C 263.49 225.90 262.44 236.73 264.00 252.00 C 265.56 267.27 261.03 288.09 264.00 304.00 C 266.97 319.91 249.53 325.35 248.02 310.97 C 246.52 296.60 250.17 283.60 244.69 274.30 C 239.21 265.00 230.93 257.70 222.00 248.00
C 211.95 249.02 203.61 247.22 194.25 245.61 C 184.89 243.99 177.75 239.10 170.25 236.74 C 162.75 234.37 156.54 228.93 149.70 224.30 C 142.86 219.67 133.06 210.25 125.90 203.10 C 118.74 195.95 116.61 188.52 111.81 181.75 C 107.01 174.97 105.74 168.03 102.36 160.30 C 98.98 152.57 99.90 146.43 97.80 136.75 C 95.70 127.08 94.48 110.27 107.67 112.33 C 120.86 114.39 126.91 113.20 137.25 116.20 C 147.58 119.19 153.20 121.31 160.92 125.13 C 168.64 128.95 174.35 132.25 181.25 137.19 C 188.16 142.13 197.89 153.29 204.59 159.75 C 211.29 166.21 213.63 174.16 217.39 180.75 C 221.16 187.35 224.69 193.46 226.80 202.25 C 228.91 211.03 231.85 216.45 231.40 226.75 C 230.94 237.06 238.31 248.58 249.00 254.00
C 247.61 234.29 249.00 218.91 256.58 207.23 C 264.15 195.55 278.98 181.68 290.75 169.75 C 302.52 157.83 317.05 144.14 328.25 132.25 C 339.45 120.35 357.08 100.61 360.00 123.00
C 341.09 138.76 323.55 158.28 306.00 176.00
C 332.08 171.95 351.93 161.67 372.30 139.30 C 392.66 116.93 396.52 100.33 401.00 71.00
C 388.35 72.38 378.76 74.17 369.30 77.64 C 359.84 81.10 352.92 84.79 343.75 90.19 C 334.58 95.59 323.85 108.58 316.43 116.77 C 309.00 124.95 309.06 138.05 296.00 139.00
C 286.50 125.18 299.43 117.25 306.30 105.30 C 313.17 93.34 328.73 83.20 338.25 76.81 C 347.78 70.43 358.25 64.94 369.77 61.43 C 381.29 57.91 396.06 56.39 412.00 56.00
M 284.00 351.00 
C 284.01 355.77 280.95 356.43 279.00 361.00
C 267.50 356.96 254.88 350.92 241.31 352.31 C 227.73 353.69 217.88 361.14 209.25 371.25 C 200.63 381.37 202.02 396.41 204.13 408.92 C 206.24 421.43 217.37 430.50 228.25 436.19 C 239.14 441.88 255.60 442.59 265.77 435.42 C 275.94 428.26 283.71 416.73 284.00 403.00
C 275.08 403.44 264.94 401.99 257.00 404.00
C 252.02 398.52 251.22 388.21 261.08 388.94 C 270.95 389.67 286.42 388.61 296.00 389.00
C 303.11 402.13 296.41 417.40 291.29 428.30 C 286.17 439.21 275.18 450.42 262.90 453.91 C 250.62 457.39 231.43 455.10 221.75 450.81 C 212.06 446.52 198.52 433.15 193.29 423.70 C 188.06 414.25 185.75 394.45 188.20 382.75 C 190.65 371.05 198.89 358.64 209.77 349.43 C 220.64 340.22 231.23 337.34 248.00 337.00 C 264.77 336.66 273.69 342.26 284.00 351.00
M 362.00 337.00 
C 369.07 345.62 369.66 353.59 373.19 362.25 C 376.73 370.91 379.80 378.24 383.13 386.92 C 386.46 395.60 388.30 403.37 392.71 411.30 C 397.12 419.23 395.67 428.98 401.19 436.25 C 406.71 443.53 405.41 459.41 394.70 454.29 C 383.98 449.16 389.96 439.21 384.00 430.00
C 366.00 430.00 348.00 430.00 330.00 430.00
C 328.24 436.82 323.81 460.42 313.08 454.87 C 302.36 449.32 314.18 433.76 316.39 425.25 C 318.60 416.73 324.99 404.46 328.26 395.25 C 331.54 386.03 335.57 374.22 339.21 364.77 C 342.86 355.32 346.35 342.42 355.00 336.00
C 357.22 336.93 359.87 338.11 362.00 337.00
M 123.00 352.00 
C 123.00 364.33 123.00 376.67 123.00 389.00
C 130.12 386.81 141.82 388.52 149.00 388.00 C 156.18 387.48 164.03 388.64 164.31 395.70 C 164.59 402.75 161.16 402.51 153.99 403.01 C 146.82 403.50 133.55 400.56 126.00 403.00 C 118.45 405.44 125.79 418.85 123.00 427.00 C 120.21 435.15 125.74 444.43 136.00 441.00 C 146.26 437.57 153.48 444.28 163.00 440.00
C 163.83 443.07 166.34 444.97 168.00 446.00
C 167.72 455.42 157.46 457.60 147.00 456.00 C 136.54 454.40 121.44 459.06 113.23 454.42 C 105.02 449.79 108.67 436.06 108.00 425.00 C 107.33 413.94 108.61 399.94 108.00 388.00 C 107.39 376.06 108.95 362.39 108.00 350.00 C 107.05 337.61 115.41 336.30 126.00 338.00 C 136.59 339.70 153.06 336.50 162.07 337.07 C 171.09 337.65 169.12 353.08 159.92 352.92 C 150.71 352.76 132.52 354.03 123.00 352.00 Z"/>
</g>
<g fill="#000000" fill-opacity="0.96" stroke="None">
<path d="
M 412.00 56.00 
C 396.06 56.39 381.29 57.91 369.77 61.43 C 358.25 64.94 347.78 70.43 338.25 76.81 C 328.73 83.20 313.17 93.34 306.30 105.30 C 299.43 117.25 286.50 125.18 296.00 139.00
C 309.06 138.05 309.00 124.95 316.43 116.77 C 323.85 108.58 334.58 95.59 343.75 90.19 C 352.92 84.79 359.84 81.10 369.30 77.64 C 378.76 74.17 388.35 72.38 401.00 71.00
C 396.52 100.33 392.66 116.93 372.30 139.30 C 351.93 161.67 332.08 171.95 306.00 176.00
C 323.55 158.28 341.09 138.76 360.00 123.00
C 357.08 100.61 339.45 120.35 328.25 132.25 C 317.05 144.14 302.52 157.83 290.75 169.75 C 278.98 181.68 264.15 195.55 256.58 207.23 C 249.00 218.91 247.61 234.29 249.00 254.00
C 238.31 248.58 230.94 237.06 231.40 226.75 C 231.85 216.45 228.91 211.03 226.80 202.25 C 224.69 193.46 221.16 187.35 217.39 180.75 C 213.63 174.16 211.29 166.21 204.59 159.75 C 197.89 153.29 188.16 142.13 181.25 137.19 C 174.35 132.25 168.64 128.95 160.92 125.13 C 153.20 121.31 147.58 119.19 137.25 116.20 C 126.91 113.20 120.86 114.39 107.67 112.33 C 94.48 110.27 95.70 127.08 97.80 136.75 C 99.90 146.43 98.98 152.57 102.36 160.30 C 105.74 168.03 107.01 174.97 111.81 181.75 C 116.61 188.52 118.74 195.95 125.90 203.10 C 133.06 210.25 142.86 219.67 149.70 224.30 C 156.54 228.93 162.75 234.37 170.25 236.74 C 177.75 239.10 184.89 243.99 194.25 245.61 C 203.61 247.22 211.95 249.02 222.00 248.00
C 230.93 257.70 239.21 265.00 244.69 274.30 C 250.17 283.60 246.52 296.60 248.02 310.97 C 249.53 325.35 266.97 319.91 264.00 304.00 C 261.03 288.09 265.56 267.27 264.00 252.00 C 262.44 236.73 263.49 225.90 267.76 216.77 C 272.04 207.64 281.11 202.31 289.00 192.00
C 302.55 191.74 314.07 191.34 324.75 187.76 C 335.43 184.18 344.49 180.15 353.08 175.13 C 361.67 170.11 372.52 162.30 381.75 152.75 C 390.99 143.20 396.17 132.39 401.29 123.30 C 406.40 114.21 410.50 104.72 412.61 93.75 C 414.71 82.79 419.25 66.74 412.00 56.00
M 216.00 222.00 
C 198.23 204.40 178.74 186.90 163.00 168.00
C 152.17 167.42 149.03 177.20 157.75 184.25 C 166.47 191.29 172.97 200.22 181.25 207.75 C 189.53 215.28 197.35 224.00 205.00 232.00
C 185.04 228.29 173.62 223.11 159.08 212.91 C 144.54 202.71 129.58 185.02 123.42 172.23 C 117.27 159.44 112.32 144.81 111.00 127.00
C 141.73 132.17 157.68 136.02 179.30 155.70 C 200.91 175.38 212.49 196.83 216.00 222.00 Z"/>
</g>
<g fill="#000000" fill-opacity="0.03" stroke="None">
<path d="
M 216.00 222.00 
C 212.49 196.83 200.91 175.38 179.30 155.70 C 157.68 136.02 141.73 132.17 111.00 127.00
C 112.32 144.81 117.27 159.44 123.42 172.23 C 129.58 185.02 144.54 202.71 159.08 212.91 C 173.62 223.11 185.04 228.29 205.00 232.00
C 197.35 224.00 189.53 215.28 181.25 207.75 C 172.97 200.22 166.47 191.29 157.75 184.25 C 149.03 177.20 152.17 167.42 163.00 168.00
C 178.74 186.90 198.23 204.40 216.00 222.00 Z"/>
</g>
<g fill="#000000" fill-opacity="0.96" stroke="None">
<path d="
M 0.00 343.00 
L 0.00 346.00
C 3.18 355.19 7.05 365.50 10.60 374.25 C 14.15 383.00 15.26 393.43 19.09 401.90 C 22.93 410.37 25.25 421.88 29.60 429.25 C 33.95 436.63 30.67 452.40 42.75 455.80 C 54.84 459.21 57.48 440.35 59.88 432.90 C 62.29 425.45 66.79 413.90 69.94 405.08 C 73.09 396.26 74.76 386.62 78.43 376.77 C 82.10 366.92 84.41 360.50 87.74 348.75 C 91.07 336.99 76.24 333.84 73.91 344.90 C 71.57 355.96 66.63 362.43 64.26 373.25 C 61.89 384.07 57.25 391.09 54.39 401.25 C 51.54 411.41 48.72 419.82 45.00 430.00
C 42.21 419.21 37.99 411.65 35.19 402.25 C 32.40 392.85 29.17 385.49 26.19 376.25 C 23.22 367.00 19.79 359.21 17.57 349.77 C 15.36 340.33 7.14 330.10 0.00 343.00 Z"/>
</g>
<g fill="#000000" fill-opacity="0.96" stroke="None">
<path d="
M 284.00 351.00 
C 273.69 342.26 264.77 336.66 248.00 337.00 C 231.23 337.34 220.64 340.22 209.77 349.43 C 198.89 358.64 190.65 371.05 188.20 382.75 C 185.75 394.45 188.06 414.25 193.29 423.70 C 198.52 433.15 212.06 446.52 221.75 450.81 C 231.43 455.10 250.62 457.39 262.90 453.91 C 275.18 450.42 286.17 439.21 291.29 428.30 C 296.41 417.40 303.11 402.13 296.00 389.00
C 286.42 388.61 270.95 389.67 261.08 388.94 C 251.22 388.21 252.02 398.52 257.00 404.00
C 264.94 401.99 275.08 403.44 284.00 403.00
C 283.71 416.73 275.94 428.26 265.77 435.42 C 255.60 442.59 239.14 441.88 228.25 436.19 C 217.37 430.50 206.24 421.43 204.13 408.92 C 202.02 396.41 200.63 381.37 209.25 371.25 C 217.88 361.14 227.73 353.69 241.31 352.31 C 254.88 350.92 267.50 356.96 279.00 361.00
C 280.95 356.43 284.01 355.77 284.00 351.00 Z"/>
</g>
<g fill="#000000" fill-opacity="0.97" stroke="None">
<path d="
M 362.00 337.00 
C 359.87 338.11 357.22 336.93 355.00 336.00
C 346.35 342.42 342.86 355.32 339.21 364.77 C 335.57 374.22 331.54 386.03 328.26 395.25 C 324.99 404.46 318.60 416.73 316.39 425.25 C 314.18 433.76 302.36 449.32 313.08 454.87 C 323.81 460.42 328.24 436.82 330.00 430.00
C 348.00 430.00 366.00 430.00 384.00 430.00
C 389.96 439.21 383.98 449.16 394.70 454.29 C 405.41 459.41 406.71 443.53 401.19 436.25 C 395.67 428.98 397.12 419.23 392.71 411.30 C 388.30 403.37 386.46 395.60 383.13 386.92 C 379.80 378.24 376.73 370.91 373.19 362.25 C 369.66 353.59 369.07 345.62 362.00 337.00
M 378.00 416.00 
C 364.00 416.00 350.00 416.00 336.00 416.00
C 343.73 396.97 350.14 379.99 357.00 361.00
C 364.42 379.55 370.39 397.17 378.00 416.00 Z"/>
</g>
<g fill="#000000" fill-opacity="0.98" stroke="None">
<path d="
M 512.00 447.00 
L 512.00 433.00
C 510.18 426.24 511.00 417.51 511.00 410.00
C 511.00 402.33 511.00 394.67 511.00 387.00
C 511.00 381.67 511.00 376.33 511.00 371.00
C 511.00 364.00 511.14 356.99 511.00 350.00
C 516.37 337.65 496.28 330.52 496.33 343.33 C 496.38 356.14 496.37 371.04 496.67 384.33 C 496.97 397.62 496.87 413.38 496.00 426.00
C 491.81 415.51 483.78 408.31 478.39 399.75 C 473.00 391.19 466.91 382.66 461.71 374.30 C 456.51 365.94 448.12 357.61 444.75 349.25 C 441.37 340.90 424.81 328.50 424.00 346.00 C 423.19 363.50 423.81 386.35 424.00 404.00 C 424.19 421.65 420.86 442.55 428.00 456.00
C 445.51 456.64 437.53 435.76 439.00 421.00 C 440.47 406.24 437.07 384.53 440.00 370.00
C 448.42 379.88 454.35 392.21 461.91 402.08 C 469.47 411.95 477.65 424.44 483.90 434.10 C 490.16 443.76 502.06 465.00 512.00 447.00 Z"/>
</g>
<g fill="#000000" fill-opacity="0.94" stroke="None">
<path d="
M 123.00 352.00 
C 132.52 354.03 150.71 352.76 159.92 352.92 C 169.12 353.08 171.09 337.65 162.07 337.07 C 153.06 336.50 136.59 339.70 126.00 338.00 C 115.41 336.30 107.05 337.61 108.00 350.00 C 108.95 362.39 107.39 376.06 108.00 388.00 C 108.61 399.94 107.33 413.94 108.00 425.00 C 108.67 436.06 105.02 449.79 113.23 454.42 C 121.44 459.06 136.54 454.40 147.00 456.00 C 157.46 457.60 167.72 455.42 168.00 446.00
C 166.34 444.97 163.83 443.07 163.00 440.00
C 153.48 444.28 146.26 437.57 136.00 441.00 C 125.74 444.43 120.21 435.15 123.00 427.00 C 125.79 418.85 118.45 405.44 126.00 403.00 C 133.55 400.56 146.82 403.50 153.99 403.01 C 161.16 402.51 164.59 402.75 164.31 395.70 C 164.03 388.64 156.18 387.48 149.00 388.00 C 141.82 388.52 130.12 386.81 123.00 389.00
C 123.00 376.67 123.00 364.33 123.00 352.00 Z"/>
</g>
<g fill="#000000" fill-opacity="0.18" stroke="None">
<path d="
M 511.00 371.00 
C 511.00 370.96 512.00 371.00 512.00 371.00
L 512.00 350.00
C 512.00 350.00 511.00 349.99 511.00 350.00
C 511.14 356.99 511.00 364.00 511.00 371.00 Z"/>
</g>
<g fill="#000000" fill-opacity="0.05" stroke="None">
<path d="
M 378.00 416.00 
C 370.39 397.17 364.42 379.55 357.00 361.00
C 350.14 379.99 343.73 396.97 336.00 416.00
C 350.00 416.00 364.00 416.00 378.00 416.00 Z"/>
</g>
<g fill="#000000" fill-opacity="0.36" stroke="None">
<path d="
M 511.00 387.00 
C 511.00 386.96 512.00 387.00 512.00 387.00
L 512.00 371.00
C 512.00 371.00 511.00 370.96 511.00 371.00
C 511.00 376.33 511.00 381.67 511.00 387.00 Z"/>
</g>
<g fill="#000000" fill-opacity="0.55" stroke="None">
<path d="
M 511.00 410.00 
C 511.00 409.96 512.00 410.00 512.00 410.00
L 512.00 387.00
C 512.00 387.00 511.00 386.96 511.00 387.00
C 511.00 394.67 511.00 402.33 511.00 410.00 Z"/>
</g>
<g fill="#000000" fill-opacity="0.77" stroke="None">
<path d="
M 512.00 433.00 
L 512.00 410.00
C 512.00 410.00 511.00 409.96 511.00 410.00
C 511.00 417.51 510.18 426.24 512.00 433.00 Z"/>
</g>
</svg>